<?xml version="1.0" encoding="utf-8"?>
<!-- Generator: Adobe Illustrator 23.0.3, SVG Export Plug-In . SVG Version: 6.00 Build 0)  -->
<svg version="1.1" id="Layer_1" xmlns="http://www.w3.org/2000/svg" xmlns:xlink="http://www.w3.org/1999/xlink" x="0px" y="0px"
	 viewBox="0 0 1400 822.9" style="enable-background:new 0 0 1400 822.9;" xml:space="preserve" preserveAspectRatio="none">
<style type="text/css">
	.st0{clip-path:url(#SVGID_2_);}
	.st1{opacity:0.15;}
	.st2{fill:url(#Basic_1_);}
	.st3{fill:#E9E9F0;}
	.st4{fill:#908FB2;}
	.st5{fill:#6C6B86;}
	.st6{fill:#D3D2E0;}
	.st7{fill:#A6A5C2;}
	.st8{fill:#BCBCD1;}
</style>
<title>bg_header</title>
<g>
	<g id="Layer_1-2">
		<g>
			<defs>
				<path id="SVGID_1_" d="M0,650c0,0,988.2,353.3,1400,50V0.8L0,0V650z"/>
			</defs>
			<clipPath id="SVGID_2_">
				<use xlink:href="#SVGID_1_"  style="overflow:visible;"/>
			</clipPath>
			<g class="st0">
				<g class="st1">

						<linearGradient id="Basic_1_" gradientUnits="userSpaceOnUse" x1="1058.5388" y1="-208.8782" x2="343.6812" y2="1029.2877" gradientTransform="matrix(1 0 0 -1 0 821.1498)">
						<stop  offset="0" style="stop-color:#FBB03B"/>
						<stop  offset="0.15" style="stop-color:#FAAB3E"/>
						<stop  offset="0.33" style="stop-color:#F99C46"/>
						<stop  offset="0.53" style="stop-color:#F78453"/>
						<stop  offset="0.74" style="stop-color:#F36266"/>
						<stop  offset="0.96" style="stop-color:#EF377D"/>
						<stop  offset="1" style="stop-color:#EE2E82"/>
					</linearGradient>
					<rect id="Basic" x="-5.8" y="-6.4" class="st2" width="1413.8" height="834.6"/>
					<path class="st3" d="M810.9,723.9c20.1-33.3,61-47.6,98.5-44.8s72.5,19.9,106.1,37.5c65.5,34.3,130,72.1,199.6,95.8
						c18.6,6.3,37.4,11.6,56.5,15.9H787.2c1.6-16.5,3.7-32.9,6.5-49.3C796.8,759.8,800.9,740.3,810.9,723.9z"/>
					<path class="st4" d="M1026.8,401.8c-94.9-56.5-189.6-117.7-295.9-143.4c-56-13.6-121.5-14.3-163.5,26.9
						c-30.9,30.3-41.8,76-59.3,116.4c-32.2,74-95.4,136.6-171.9,149.4c-77.7,12.9-154.6-25.8-220.1-71.5
						C75.3,451.1,36,419.3-5.8,393.1v-84.3c49.8,25.4,99.1,52.6,152.6,67.3c56.6,15.6,119.7,16,170.7-14.2
						c55.3-32.8,87.8-95.5,111.4-157.3s42.2-127.4,81.1-180c8.2-11,17.2-21.4,27.1-31H1408v572.6c-33-6.6-65.6-15.3-97.5-26.1
						C1211,506.7,1117.6,455.9,1026.8,401.8z"/>
					<path class="st5" d="M510.1,24.6c-39,52.6-57.5,118.2-81.1,180s-56.2,124.5-111.4,157.3c-51,30.2-114.1,29.9-170.7,14.2
						C93.3,361.4,44,334.2-5.8,308.8V-6.4h542.9C527.3,3.2,518.2,13.5,510.1,24.6z"/>
					<path class="st6" d="M785.9,602.5c32.5-15.8,70-15.7,105.3-9.9c80.6,13.2,154.4,53.4,231.4,81.5
						c91.4,33.1,188.1,49.1,285.3,47.1v107.1h-136.4c-19.1-4.3-38-9.6-56.5-15.9c-69.7-23.6-134.1-61.4-199.6-95.8
						c-33.6-17.6-68.6-34.7-106.1-37.5s-78.4,11.5-98.5,44.8c-9.9,16.4-14,35.9-17.2,55.1c-2.7,16.3-4.9,32.8-6.5,49.3h-182
						c8.5-6.1,16.5-12.9,23.9-20.2C690.3,746.6,709,639.9,785.9,602.5z"/>
					<path class="st7" d="M116,479.5c65.5,45.7,142.4,84.4,220.1,71.5c76.5-12.7,139.7-75.4,171.9-149.4
						c17.6-40.3,28.5-86.1,59.3-116.4c42-41.2,107.5-40.4,163.5-26.9c106.3,25.7,201,86.9,295.9,143.4
						c90.9,54.1,184.2,104.9,283.8,138.4c31.9,10.8,64.5,19.5,97.5,26.1V666c-87.3-2.4-173.2-22.3-252.7-58.5
						c-69.6-31.9-133.7-76-204.2-105.6s-151.4-43.7-221.7-13.6c-89.5,38.4-140.8,137.9-221.1,194.5
						c-105.8,74.6-245.2,64.8-370.3,39.3c-48.2-9.8-96.9-22.1-143.9-38.7V393.1C36,419.3,75.3,451.1,116,479.5z"/>
					<path class="st8" d="M508.4,682.8c80.3-56.6,131.6-156.1,221.1-194.5c70.3-30.1,151.2-16,221.7,13.6s134.7,73.7,204.2,105.6
						c79.4,36.3,165.4,56.2,252.7,58.5v55.2c-97.2,2-193.9-14-285.3-47.1c-77-28-150.9-68.3-231.4-81.5
						c-35.3-5.8-72.9-5.9-105.3,9.9C709,639.9,690.3,746.6,629.1,808c-7.4,7.4-15.4,14.2-23.9,20.2H-5.8V683.5
						c47,16.5,95.7,28.9,143.9,38.7C263.1,747.6,402.6,757.4,508.4,682.8z"/>
				</g>
			</g>
		</g>
	</g>
</g>
</svg>
