<svg id="Layer_1" data-name="Layer 1" xmlns="http://www.w3.org/2000/svg" xmlns:xlink="http://www.w3.org/1999/xlink" viewBox="0 0 1400 370.51"><defs><style>.cls-1{fill:none;}.cls-2{clip-path:url(#clip-path);}.cls-3{clip-path:url(#clip-path-2);}.cls-4{opacity:0.15;}.cls-5{fill:url(#linear-gradient);}.cls-6{fill:#8c8bae;}.cls-7{fill:#6d6c81;}.cls-8{fill:#cecddb;}.cls-9{fill:#a1a0bd;}.cls-10{fill:#b8b7cc;}</style><clipPath id="clip-path"><rect id="Background" class="cls-1" width="1400" height="370.51"/></clipPath><clipPath id="clip-path-2"><path id="Background-2" data-name="Background" class="cls-1" d="M-53.65,396.73s1374.29,239.64,1947,33.91V-43.62l-1947-.58Z"/></clipPath><linearGradient id="linear-gradient" x1="1289.75" y1="872.57" x2="553.04" y2="-403.44" gradientUnits="userSpaceOnUse"><stop offset="0" stop-color="#f6ac3b"/><stop offset="0.16" stop-color="#f5a73e"/><stop offset="0.34" stop-color="#f49846"/><stop offset="0.55" stop-color="#f18054"/><stop offset="0.76" stop-color="#ed5e67"/><stop offset="0.99" stop-color="#e8337f"/><stop offset="1" stop-color="#e83081"/></linearGradient></defs><title>Artboard 1</title><g class="cls-2"><g class="cls-3"><g class="cls-4"><rect id="Basic" class="cls-5" x="-61.71" y="-48.52" width="1966.2" height="566.17"/><path class="cls-6" d="M1374.27,228.37c-131.92-38.31-263.71-79.82-411.49-97.28-77.91-9.2-169-9.72-227.4,18.23-42.93,20.54-58.1,51.57-82.54,78.93C608,278.44,520.19,320.93,413.75,329.57c-108,8.76-215-17.49-306.14-48.5C51.05,261.82-3.56,240.23-61.71,222.45V165.28C7.52,182.48,76.17,200.93,150.5,211c78.72,10.62,166.5,10.85,237.4-9.64,76.88-22.22,122.06-64.76,155-106.71S601.53,8.17,655.7-27.53a309.72,309.72,0,0,1,37.66-21H1904.49V339.93c-45.88-4.43-91.24-10.45-135.61-17.72C1630.5,299.54,1500.66,265.07,1374.27,228.37Z"/><path class="cls-7" d="M655.7-27.53C601.53,8.17,575.81,52.65,542.88,94.6s-78.1,84.49-155,106.71C317,221.8,229.22,221.57,150.5,211c-74.33-10-143-28.47-212.21-45.67V-48.52H693.36A309.72,309.72,0,0,0,655.7-27.53Z"/><path class="cls-8" d="M1039.27,364.51c45.15-10.72,97.34-10.64,146.51-6.71,112,8.94,214.74,36.25,321.88,55.26,127.2,22.57,262.24,33.24,396.83,32v72.62H1714.8q-39.77-4.41-78.61-10.78c-96.92-16-186.5-41.65-277.63-64.95-46.75-12-95.46-23.54-147.58-25.46s-109,7.77-137,30.38c-13.8,11.15-19.54,24.38-24,37.39a260.42,260.42,0,0,0-9,33.42H787.9a309.29,309.29,0,0,0,33.28-13.73C906.41,462.26,932.37,389.88,1039.27,364.51Z"/><path class="cls-9" d="M107.61,281.07c91.12,31,198.1,57.26,306.14,48.5C520.19,320.93,608,278.44,652.84,228.25c24.44-27.36,39.61-58.39,82.54-78.93,58.43-27.95,149.49-27.43,227.4-18.23,147.78,17.46,279.57,59,411.49,97.28,126.39,36.7,256.23,71.17,394.61,93.84,44.37,7.27,89.73,13.29,135.61,17.72v67.63c-120.66-1.66-240.73-15-351.36-39.71-96.74-21.64-186-51.53-284-71.6s-210.6-29.65-308.32-9.2C836.28,313.11,765,380.58,653.34,419c-147.09,50.6-341,44-515,26.69-67-6.65-134.73-15-200.08-26.23v-197C-3.56,240.23,51.05,261.82,107.61,281.07Z"/><path class="cls-10" d="M653.34,419C765,380.58,836.28,313.11,960.8,287.05c97.72-20.45,210.3-10.87,308.32,9.2s187.27,50,284,71.6c110.63,24.75,230.7,38,351.36,39.71V445c-134.59,1.27-269.63-9.4-396.83-32-107.14-19-209.85-46.32-321.88-55.26-49.17-3.93-101.36-4-146.51,6.71-106.9,25.37-132.86,97.75-218.09,139.41a309.29,309.29,0,0,1-33.28,13.73H-61.71V419.46C3.64,430.69,71.4,439,138.37,445.69,312.32,463,506.25,469.6,653.34,419Z"/></g></g></g></svg>