<?xml version="1.0" encoding="utf-8"?>
<!-- Generator: Adobe Illustrator 16.0.0, SVG Export Plug-In . SVG Version: 6.00 Build 0)  -->
<!DOCTYPE svg PUBLIC "-//W3C//DTD SVG 1.1//EN" "http://www.w3.org/Graphics/SVG/1.1/DTD/svg11.dtd">
<svg version="1.1" id="Layer_1" xmlns="http://www.w3.org/2000/svg" xmlns:xlink="http://www.w3.org/1999/xlink" x="0px" y="0px"
	 width="200px" height="51.32px" viewBox="495.275 395.434 200 51.32" enable-background="new 495.275 395.434 200 51.32"
	 xml:space="preserve">
<title>Artboard 1</title>
<g>
	<path fill="#32364D" d="M542.275,416.434h13.5c3.81,0,6.8,1.12,8.75,3c1.669,1.758,2.572,4.107,2.51,6.53v0.09c0,5-3,8-7.189,9.181
		l8.18,11.47h-6.32l-7.43-10.561h-6.68v10.561h-5.32V416.434z M555.385,431.434c3.81,0,6.24-2,6.24-5.069v-0.08
		c0-3.25-2.34-5-6.28-5h-7.75v10.149H555.385z"/>
	<path fill="#32364D" d="M588.635,416.184h4.94l13.33,30.52h-5.63l-3.07-7.271h-14.33l-3.12,7.32h-5.48L588.635,416.184z
		 M596.275,434.674l-5.26-12.13l-5.19,12.13H596.275z"/>
	<path fill="#32364D" d="M615.565,416.434h11.3c9.53,0,16.11,6.5,16.11,15v0.09c0,8.53-6.58,15.15-16.11,15.15h-11.3V416.434z
		 M620.895,421.274v20.58h6c6.37,0,10.52-4.279,10.52-10.22v-0.08c0-5.93-4.149-10.31-10.52-10.31L620.895,421.274z"/>
	<rect x="652.324" y="416.394" fill="#32364D" width="5.33" height="30.31"/>
	<polygon fill="#32364D" points="694.845,416.394 684.275,431.204 695.275,446.704 688.994,446.704 680.985,435.145 
		673.025,446.704 666.914,446.704 677.874,431.294 667.345,416.394 673.624,416.394 681.164,427.394 688.735,416.394 	"/>
	<path fill="#31AF7D" d="M517.465,440.334c-0.971,0.004-1.884-0.461-2.45-1.25l-11.95-16.56h-7.79v-6h9.33
		c0.971-0.004,1.884,0.461,2.45,1.25l9.76,13.53l14.9-34c0.457-1.124,1.546-1.862,2.76-1.87h18.63v6h-16.65l-16.18,37.09
		c-0.431,0.993-1.363,1.677-2.44,1.79h-0.32"/>
</g>
</svg>
