<?xml version="1.0" encoding="utf-8"?>
<!-- Generator: Adobe Illustrator 23.0.2, SVG Export Plug-In . SVG Version: 6.00 Build 0)  -->
<svg width="46px" height="46px" version="1.1" id="Layer_1" xmlns="http://www.w3.org/2000/svg" xmlns:xlink="http://www.w3.org/1999/xlink" x="0px" y="0px"
	 viewBox="0 0 46 46" style="enable-background:new 0 0 46 46;" xml:space="preserve">
<style type="text/css">
	.st0{opacity:0.9;}
	.st1{opacity:0.3;fill:#DDE4F2;}
	.st2{fill:#E1E1E1;}
	.st3{fill-rule:evenodd;clip-rule:evenodd;fill:#E1E1E1;}
</style>
<g class="st0">
	<path class="st1" d="M17.9,31.2c0,0,3.9,8.6,15.7,6.5l5.7,6.1l-0.1-8.4c0,0,12.2-10.7-3.7-19.4C35.5,15.9,34.5,27.9,17.9,31.2z"/>
	<path class="st2" d="M0.6,15.9c0,4.4,2.2,8.6,5.9,11.5v10.1c0,0.2,0.1,0.4,0.2,0.5c0.3,0.3,0.7,0.3,0.9,0l7-7.1
		c0.7,0.1,1.4,0.2,2.1,0.3c2.1,5.1,7.6,8.5,13.8,8.5c1,0,2-0.1,3-0.3l5.7,5.7c0.1,0.1,0.3,0.2,0.5,0.2c0.4,0,0.7-0.3,0.7-0.7v-8.2
		c2.9-2.1,4.8-5.7,4.9-9.5c0-5.2-3.7-10-9.2-11.9C35.6,7,27.9,0.5,18.4,0.5C8.6,0.5,0.6,7.4,0.6,15.9z M18.3,31.4
		c8.6-0.1,13.2-5,13.3-5.1c2.1-2,3.6-4.7,4.3-7.6c0.2-0.6,0.2-1.3,0.3-2C40.9,18.5,44,22.6,44,27c0,3.2-1.7,6.4-4.6,8.6
		c-0.2,0.1-0.3,0.4-0.3,0.6v7l-4.9-4.9c-0.2-0.2-0.4-0.2-0.6-0.2c-1,0.2-2,0.3-3.1,0.3C25.2,38.4,20.4,35.6,18.3,31.4z M2,15.9
		c0-7.7,7.4-14,16.4-14s16.4,6.3,16.5,14c0,0.8-0.1,1.6-0.3,2.5c-0.7,2.7-2.1,5.2-4.1,7c-1.9,1.8-5.8,4.5-12.3,4.5
		c-1.2,0-2.4-0.1-3.6-0.4h-0.1c-0.2,0-0.3,0.1-0.5,0.2l-6.2,6.2v-8.8c0-0.2-0.1-0.5-0.3-0.6C4,23.8,2,20,2,15.9z"/>
	<g>
		<path class="st3" d="M19.9,11.2c0.4,0.5,0.6,1,0.6,1.7c0,0.5-0.1,0.9-0.4,1.3c-0.1,0.2-0.3,0.5-0.6,0.7l-0.8,0.8
			c-0.8,0.7-1.2,1.4-1.5,2c-0.2,0.6-0.3,1.3-0.3,2.3h1.7c0-0.8,0.1-1.4,0.3-1.9c0.2-0.4,0.6-0.9,1.2-1.5c0.9-0.8,1.4-1.5,1.7-1.9
			c0.3-0.4,0.4-1,0.4-1.7c0-1.1-0.4-2.1-1.2-2.8C20.4,9.4,19.3,9,18,9c-1.4,0-2.5,0.4-3.3,1.3c-0.8,0.9-1.2,2-1.2,3.4h1.7
			c0-0.9,0.2-1.5,0.4-1.9c0.4-0.8,1.2-1.2,2.3-1.2C18.9,10.5,19.5,10.8,19.9,11.2L19.9,11.2z M19.9,11.2"/>
		<rect x="16.9" y="21.5" class="st3" width="2" height="2"/>
	</g>
</g>
</svg>
