<?xml version="1.0" encoding="UTF-8" standalone="no"?><svg xmlns="http://www.w3.org/2000/svg" xmlns:xlink="http://www.w3.org/1999/xlink" contentScriptType="application/ecmascript" contentStyleType="text/css" height="1078px" preserveAspectRatio="none" style="width:726px;height:1078px;" version="1.1" viewBox="0 0 726 1078" width="726px" zoomAndPan="magnify"><defs><filter height="300%" id="f1piqu5v4aqaxm" width="300%" x="-1" y="-1"><feGaussianBlur result="blurOut" stdDeviation="2.0"/><feColorMatrix in="blurOut" result="blurOut2" type="matrix" values="0 0 0 0 0 0 0 0 0 0 0 0 0 0 0 0 0 0 .4 0"/><feOffset dx="4.0" dy="4.0" in="blurOut2" result="blurOut3"/><feBlend in="SourceGraphic" in2="blurOut3" mode="normal"/></filter></defs><g><!--cluster CoreNode1--><polygon fill="#FFFFFF" filter="url(#f1piqu5v4aqaxm)" points="36.9986,601,46.9986,591,245.9986,591,245.9986,1056,235.9986,1066,36.9986,1066,36.9986,601" style="stroke: #000000; stroke-width: 1.5;"/><line style="stroke: #000000; stroke-width: 1.5;" x1="235.9986" x2="244.9986" y1="601" y2="592"/><line style="stroke: #000000; stroke-width: 1.5;" x1="36.9986" x2="235.9986" y1="601" y2="601"/><line style="stroke: #000000; stroke-width: 1.5;" x1="235.9986" x2="235.9986" y1="601" y2="1066"/><text fill="#000000" font-family="sans-serif" font-size="14" font-weight="bold" lengthAdjust="spacingAndGlyphs" textLength="98" x="88.4986" y="617.5352">Core Node #1</text><!--cluster CoreNode2--><polygon fill="#FFFFFF" filter="url(#f1piqu5v4aqaxm)" points="272.9986,601,282.9986,591,481.9986,591,481.9986,1056,471.9986,1066,272.9986,1066,272.9986,601" style="stroke: #000000; stroke-width: 1.5;"/><line style="stroke: #000000; stroke-width: 1.5;" x1="471.9986" x2="480.9986" y1="601" y2="592"/><line style="stroke: #000000; stroke-width: 1.5;" x1="272.9986" x2="471.9986" y1="601" y2="601"/><line style="stroke: #000000; stroke-width: 1.5;" x1="471.9986" x2="471.9986" y1="601" y2="1066"/><text fill="#000000" font-family="sans-serif" font-size="14" font-weight="bold" lengthAdjust="spacingAndGlyphs" textLength="98" x="324.4986" y="617.5352">Core Node #2</text><!--cluster CoreNodeN--><polygon fill="#FFFFFF" filter="url(#f1piqu5v4aqaxm)" points="499.9986,601,509.9986,591,704.9986,591,704.9986,1056,694.9986,1066,499.9986,1066,499.9986,601" style="stroke: #000000; stroke-width: 1.5;"/><line style="stroke: #000000; stroke-width: 1.5;" x1="694.9986" x2="703.9986" y1="601" y2="592"/><line style="stroke: #000000; stroke-width: 1.5;" x1="499.9986" x2="694.9986" y1="601" y2="601"/><line style="stroke: #000000; stroke-width: 1.5;" x1="694.9986" x2="694.9986" y1="601" y2="1066"/><text fill="#000000" font-family="sans-serif" font-size="14" font-weight="bold" lengthAdjust="spacingAndGlyphs" textLength="100" x="548.4986" y="617.5352">Core Node #N</text><!--cluster Explorer--><polygon fill="#FFFFFF" filter="url(#f1piqu5v4aqaxm)" points="130.9986,279,140.9986,269,412.9986,269,412.9986,534,402.9986,544,130.9986,544,130.9986,279" style="stroke: #000000; stroke-width: 1.5;"/><line style="stroke: #000000; stroke-width: 1.5;" x1="402.9986" x2="411.9986" y1="279" y2="270"/><line style="stroke: #000000; stroke-width: 1.5;" x1="130.9986" x2="402.9986" y1="279" y2="279"/><line style="stroke: #000000; stroke-width: 1.5;" x1="402.9986" x2="402.9986" y1="279" y2="544"/><text fill="#000000" font-family="sans-serif" font-size="14" font-weight="bold" lengthAdjust="spacingAndGlyphs" textLength="101" x="217.4986" y="295.5352">Explorer Node</text><!--entity core1--><rect fill="#FEFECE" filter="url(#f1piqu5v4aqaxm)" height="36.4883" style="stroke: #000000; stroke-width: 1.5;" width="96" x="117.9986" y="838"/><text fill="#000000" font-family="sans-serif" font-size="14" lengthAdjust="spacingAndGlyphs" textLength="76" x="127.9986" y="861.5352">Radix Core</text><!--entity nginx1--><rect fill="#FEFECE" filter="url(#f1piqu5v4aqaxm)" height="36.4883" style="stroke: #000000; stroke-width: 1.5;" width="63" x="134.4986" y="647"/><text fill="#000000" font-family="sans-serif" font-size="14" lengthAdjust="spacingAndGlyphs" textLength="43" x="144.4986" y="670.5352">NGINX</text><!--entity atoms1--><polygon fill="#FEFECE" filter="url(#f1piqu5v4aqaxm)" points="44.9986,1017.5,44.9986,1053.9883,130.9986,1053.9883,130.9986,1027.5,120.9986,1017.5,44.9986,1017.5" style="stroke: #000000; stroke-width: 1.5;"/><path d="M120.9986,1017.5 L120.9986,1027.5 L130.9986,1027.5 " fill="#FEFECE" style="stroke: #000000; stroke-width: 1.5;"/><text fill="#000000" font-family="sans-serif" font-size="14" lengthAdjust="spacingAndGlyphs" textLength="66" x="54.9986" y="1041.0352">atoms.zst</text><!--entity ledger1--><path d="M166.4986,1023 C166.4986,1013 199.9986,1013 199.9986,1013 C199.9986,1013 233.4986,1013 233.4986,1023 L233.4986,1048.4883 C233.4986,1058.4883 199.9986,1058.4883 199.9986,1058.4883 C199.9986,1058.4883 166.4986,1058.4883 166.4986,1048.4883 L166.4986,1023 " fill="#FEFECE" filter="url(#f1piqu5v4aqaxm)" style="stroke: #000000; stroke-width: 1.5;"/><path d="M166.4986,1023 C166.4986,1033 199.9986,1033 199.9986,1033 C199.9986,1033 233.4986,1033 233.4986,1023 " fill="none" style="stroke: #000000; stroke-width: 1.5;"/><text fill="#000000" font-family="sans-serif" font-size="14" lengthAdjust="spacingAndGlyphs" textLength="47" x="176.4986" y="1050.5352">Ledger</text><!--entity core2--><rect fill="#FEFECE" filter="url(#f1piqu5v4aqaxm)" height="36.4883" style="stroke: #000000; stroke-width: 1.5;" width="96" x="312.9986" y="838"/><text fill="#000000" font-family="sans-serif" font-size="14" lengthAdjust="spacingAndGlyphs" textLength="76" x="322.9986" y="861.5352">Radix Core</text><!--entity nginx2--><rect fill="#FEFECE" filter="url(#f1piqu5v4aqaxm)" height="36.4883" style="stroke: #000000; stroke-width: 1.5;" width="63" x="329.4986" y="647"/><text fill="#000000" font-family="sans-serif" font-size="14" lengthAdjust="spacingAndGlyphs" textLength="43" x="339.4986" y="670.5352">NGINX</text><!--entity atoms2--><polygon fill="#FEFECE" filter="url(#f1piqu5v4aqaxm)" points="280.9986,1017.5,280.9986,1053.9883,366.9986,1053.9883,366.9986,1027.5,356.9986,1017.5,280.9986,1017.5" style="stroke: #000000; stroke-width: 1.5;"/><path d="M356.9986,1017.5 L356.9986,1027.5 L366.9986,1027.5 " fill="#FEFECE" style="stroke: #000000; stroke-width: 1.5;"/><text fill="#000000" font-family="sans-serif" font-size="14" lengthAdjust="spacingAndGlyphs" textLength="66" x="290.9986" y="1041.0352">atoms.zst</text><!--entity ledger2--><path d="M402.4986,1023 C402.4986,1013 435.9986,1013 435.9986,1013 C435.9986,1013 469.4986,1013 469.4986,1023 L469.4986,1048.4883 C469.4986,1058.4883 435.9986,1058.4883 435.9986,1058.4883 C435.9986,1058.4883 402.4986,1058.4883 402.4986,1048.4883 L402.4986,1023 " fill="#FEFECE" filter="url(#f1piqu5v4aqaxm)" style="stroke: #000000; stroke-width: 1.5;"/><path d="M402.4986,1023 C402.4986,1033 435.9986,1033 435.9986,1033 C435.9986,1033 469.4986,1033 469.4986,1023 " fill="none" style="stroke: #000000; stroke-width: 1.5;"/><text fill="#000000" font-family="sans-serif" font-size="14" lengthAdjust="spacingAndGlyphs" textLength="47" x="412.4986" y="1050.5352">Ledger</text><!--entity coren--><rect fill="#FEFECE" filter="url(#f1piqu5v4aqaxm)" height="36.4883" style="stroke: #000000; stroke-width: 1.5;" width="96" x="507.9986" y="838"/><text fill="#000000" font-family="sans-serif" font-size="14" lengthAdjust="spacingAndGlyphs" textLength="76" x="517.9986" y="861.5352">Radix Core</text><!--entity nginxn--><rect fill="#FEFECE" filter="url(#f1piqu5v4aqaxm)" height="36.4883" style="stroke: #000000; stroke-width: 1.5;" width="63" x="524.4986" y="647"/><text fill="#000000" font-family="sans-serif" font-size="14" lengthAdjust="spacingAndGlyphs" textLength="43" x="534.4986" y="670.5352">NGINX</text><!--entity atomsn--><polygon fill="#FEFECE" filter="url(#f1piqu5v4aqaxm)" points="507.9986,1017.5,507.9986,1053.9883,593.9986,1053.9883,593.9986,1027.5,583.9986,1017.5,507.9986,1017.5" style="stroke: #000000; stroke-width: 1.5;"/><path d="M583.9986,1017.5 L583.9986,1027.5 L593.9986,1027.5 " fill="#FEFECE" style="stroke: #000000; stroke-width: 1.5;"/><text fill="#000000" font-family="sans-serif" font-size="14" lengthAdjust="spacingAndGlyphs" textLength="66" x="517.9986" y="1041.0352">atoms.zst</text><!--entity ledgern--><path d="M629.4986,1023 C629.4986,1013 662.9986,1013 662.9986,1013 C662.9986,1013 696.4986,1013 696.4986,1023 L696.4986,1048.4883 C696.4986,1058.4883 662.9986,1058.4883 662.9986,1058.4883 C662.9986,1058.4883 629.4986,1058.4883 629.4986,1048.4883 L629.4986,1023 " fill="#FEFECE" filter="url(#f1piqu5v4aqaxm)" style="stroke: #000000; stroke-width: 1.5;"/><path d="M629.4986,1023 C629.4986,1033 662.9986,1033 662.9986,1033 C662.9986,1033 696.4986,1033 696.4986,1023 " fill="none" style="stroke: #000000; stroke-width: 1.5;"/><text fill="#000000" font-family="sans-serif" font-size="14" lengthAdjust="spacingAndGlyphs" textLength="47" x="639.4986" y="1050.5352">Ledger</text><!--entity explorer_nginx--><rect fill="#FEFECE" filter="url(#f1piqu5v4aqaxm)" height="36.4883" style="stroke: #000000; stroke-width: 1.5;" width="63" x="147.4986" y="325"/><text fill="#000000" font-family="sans-serif" font-size="14" lengthAdjust="spacingAndGlyphs" textLength="43" x="157.4986" y="348.5352">NGINX</text><!--entity explorer_app--><rect fill="#FEFECE" filter="url(#f1piqu5v4aqaxm)" height="36.4883" style="stroke: #000000; stroke-width: 1.5;" width="79" x="139.4986" y="500"/><text fill="#000000" font-family="sans-serif" font-size="14" lengthAdjust="spacingAndGlyphs" textLength="59" x="149.4986" y="523.5352">Explorer</text><!--entity node_finder--><rect fill="#FEFECE" filter="url(#f1piqu5v4aqaxm)" height="36.4883" style="stroke: #000000; stroke-width: 1.5;" width="104" x="300.9986" y="500"/><text fill="#000000" font-family="sans-serif" font-size="14" lengthAdjust="spacingAndGlyphs" textLength="84" x="310.9986" y="523.5352">Node Finder</text><!--entity CloudFlare--><polygon fill="#FEFECE" filter="url(#f1piqu5v4aqaxm)" points="121.4986,178,131.4986,168,236.4986,168,236.4986,204.4883,226.4986,214.4883,121.4986,214.4883,121.4986,178" style="stroke: #000000; stroke-width: 1.5;"/><line style="stroke: #000000; stroke-width: 1.5;" x1="226.4986" x2="235.4986" y1="178" y2="169"/><line style="stroke: #000000; stroke-width: 1.5;" x1="121.4986" x2="226.4986" y1="178" y2="178"/><line style="stroke: #000000; stroke-width: 1.5;" x1="226.4986" x2="226.4986" y1="178" y2="214.4883"/><text fill="#000000" font-family="sans-serif" font-size="14" lengthAdjust="spacingAndGlyphs" textLength="75" x="136.4986" y="201.5352">CloudFlare</text><!--entity Community--><ellipse cx="178.9986" cy="18" fill="#FEFECE" filter="url(#f1piqu5v4aqaxm)" rx="8" ry="8" style="stroke: #A80036; stroke-width: 2.0;"/><path d="M178.9986,26 L178.9986,53 M165.9986,34 L191.9986,34 M178.9986,53 L165.9986,68 M178.9986,53 L191.9986,68 " fill="none" filter="url(#f1piqu5v4aqaxm)" style="stroke: #A80036; stroke-width: 2.0;"/><text fill="#000000" font-family="sans-serif" font-size="14" lengthAdjust="spacingAndGlyphs" textLength="79" x="139.4986" y="88.5352">Community</text><!--link nginx1 to core1--><path d="M165.9986,683.3139 C165.9986,718.1105 165.9986,793.7413 165.9986,832.3267 " fill="none" id="nginx1-core1" style="stroke: #A80036; stroke-width: 1.0; stroke-dasharray: 7.0,7.0;"/><polygon fill="#A80036" points="165.9986,837.7416,169.9986,828.7416,165.9986,832.7416,161.9986,828.7416,165.9986,837.7416" style="stroke: #A80036; stroke-width: 1.0;"/><text fill="#000000" font-family="sans-serif" font-size="13" lengthAdjust="spacingAndGlyphs" textLength="52" x="166.9986" y="757.5684">protects</text><!--link core1 to atoms1--><path d="M158.0903,874.1992 C143.7828,907.1248 113.6331,976.5078 97.95,1012.599 " fill="none" id="core1-atoms1" style="stroke: #A80036; stroke-width: 1.0; stroke-dasharray: 7.0,7.0;"/><polygon fill="#A80036" points="95.9278,1017.2526,103.1833,1010.5924,97.9205,1012.6669,95.8461,1007.4041,95.9278,1017.2526" style="stroke: #A80036; stroke-width: 1.0;"/><text fill="#000000" font-family="sans-serif" font-size="13" lengthAdjust="spacingAndGlyphs" textLength="34" x="131.9986" y="948.5684">reads</text><!--link core1 to ledger1--><path d="M169.4458,874.1992 C175.3995,905.6312 187.6464,970.288 194.6928,1007.4883 " fill="none" id="core1-ledger1" style="stroke: #A80036; stroke-width: 1.0; stroke-dasharray: 7.0,7.0;"/><polygon fill="#A80036" points="195.6933,1012.7705,197.9484,1003.1833,194.7627,1007.8579,190.0882,1004.6722,195.6933,1012.7705" style="stroke: #A80036; stroke-width: 1.0;"/><text fill="#000000" font-family="sans-serif" font-size="13" lengthAdjust="spacingAndGlyphs" textLength="50" x="184.9986" y="948.5684">persists</text><!--link nginx2 to core2--><path d="M360.9986,683.3139 C360.9986,718.1105 360.9986,793.7413 360.9986,832.3267 " fill="none" id="nginx2-core2" style="stroke: #A80036; stroke-width: 1.0; stroke-dasharray: 7.0,7.0;"/><polygon fill="#A80036" points="360.9986,837.7416,364.9986,828.7416,360.9986,832.7416,356.9986,828.7416,360.9986,837.7416" style="stroke: #A80036; stroke-width: 1.0;"/><text fill="#000000" font-family="sans-serif" font-size="13" lengthAdjust="spacingAndGlyphs" textLength="52" x="361.9986" y="757.5684">protects</text><!--link core2 to atoms2--><path d="M356.6597,874.1571 C352.8882,890.1422 347.3603,914.0681 342.9986,935 C337.4887,961.4421 331.8186,991.9428 328.124,1012.3437 " fill="none" id="core2-atoms2" style="stroke: #A80036; stroke-width: 1.0; stroke-dasharray: 7.0,7.0;"/><polygon fill="#A80036" points="327.2285,1017.3042,332.7638,1009.158,328.1168,1012.3837,324.8911,1007.7367,327.2285,1017.3042" style="stroke: #A80036; stroke-width: 1.0;"/><text fill="#000000" font-family="sans-serif" font-size="13" lengthAdjust="spacingAndGlyphs" textLength="34" x="343.9986" y="948.5684">reads</text><!--link core2 to ledger2--><path d="M368.6027,874.1992 C381.7897,905.76 408.9729,970.8185 424.4851,1007.9443 " fill="none" id="core2-ledger2" style="stroke: #A80036; stroke-width: 1.0; stroke-dasharray: 7.0,7.0;"/><polygon fill="#A80036" points="426.5016,1012.7705,426.7226,1002.9241,424.5739,1008.157,419.341,1006.0084,426.5016,1012.7705" style="stroke: #A80036; stroke-width: 1.0;"/><text fill="#000000" font-family="sans-serif" font-size="13" lengthAdjust="spacingAndGlyphs" textLength="50" x="400.9986" y="948.5684">persists</text><!--link nginxn to coren--><path d="M555.9986,683.3139 C555.9986,718.1105 555.9986,793.7413 555.9986,832.3267 " fill="none" id="nginxn-coren" style="stroke: #A80036; stroke-width: 1.0; stroke-dasharray: 7.0,7.0;"/><polygon fill="#A80036" points="555.9986,837.7416,559.9986,828.7416,555.9986,832.7416,551.9986,828.7416,555.9986,837.7416" style="stroke: #A80036; stroke-width: 1.0;"/><text fill="#000000" font-family="sans-serif" font-size="13" lengthAdjust="spacingAndGlyphs" textLength="52" x="556.9986" y="757.5684">protects</text><!--link coren to atomsn--><path d="M555.4916,874.1992 C554.5782,906.9904 552.6576,975.942 551.6489,1012.1554 " fill="none" id="coren-atomsn" style="stroke: #A80036; stroke-width: 1.0; stroke-dasharray: 7.0,7.0;"/><polygon fill="#A80036" points="551.5069,1017.2526,555.7561,1008.3675,551.6462,1012.2545,547.7592,1008.1447,551.5069,1017.2526" style="stroke: #A80036; stroke-width: 1.0;"/><text fill="#000000" font-family="sans-serif" font-size="13" lengthAdjust="spacingAndGlyphs" textLength="29" x="553.9986" y="948.5684">uses</text><!--link coren to ledgern--><path d="M566.8472,874.1992 C585.7373,905.8888 624.7588,971.3502 646.8428,1008.3975 " fill="none" id="coren-ledgern" style="stroke: #A80036; stroke-width: 1.0; stroke-dasharray: 7.0,7.0;"/><polygon fill="#A80036" points="649.4495,1012.7705,648.2769,1002.9917,646.8893,1008.4757,641.4052,1007.0881,649.4495,1012.7705" style="stroke: #A80036; stroke-width: 1.0;"/><text fill="#000000" font-family="sans-serif" font-size="13" lengthAdjust="spacingAndGlyphs" textLength="50" x="613.9986" y="948.5684">persists</text><!--link core1 to core2--><path d="M219.558,856 C246.972,856 280.2463,856 307.6327,856 " fill="none" id="core1-core2" style="stroke: #A80036; stroke-width: 1.0; stroke-dasharray: 7.0,7.0;"/><polygon fill="#A80036" points="312.675,856,303.675,852,307.675,856,303.675,860,312.675,856" style="stroke: #A80036; stroke-width: 1.0;"/><polygon fill="#A80036" points="214.2008,856,223.2008,860,219.2008,856,223.2008,852,214.2008,856" style="stroke: #A80036; stroke-width: 1.0;"/><text fill="#000000" font-family="sans-serif" font-size="13" lengthAdjust="spacingAndGlyphs" textLength="49" x="238.9986" y="849.5684">gossips</text><!--link core2 to coren--><path d="M414.558,856 C441.972,856 475.2463,856 502.6327,856 " fill="none" id="core2-coren" style="stroke: #A80036; stroke-width: 1.0; stroke-dasharray: 7.0,7.0;"/><polygon fill="#A80036" points="507.675,856,498.675,852,502.675,856,498.675,860,507.675,856" style="stroke: #A80036; stroke-width: 1.0;"/><polygon fill="#A80036" points="409.2008,856,418.2008,860,414.2008,856,418.2008,852,409.2008,856" style="stroke: #A80036; stroke-width: 1.0;"/><text fill="#000000" font-family="sans-serif" font-size="13" lengthAdjust="spacingAndGlyphs" textLength="49" x="433.9986" y="849.5684">gossips</text><!--link core1 to coren--><path d="M178.4253,833.4708 C186.6046,821.1071 198.559,806.9181 213.4986,800 C234.067,790.4754 241.9108,798.1101 264.4986,800 C365.78,808.4739 390.7381,816.1576 489.9986,838 C494.1671,838.9173 498.4659,839.9318 502.7762,840.998 " fill="none" id="core1-coren" style="stroke: #A80036; stroke-width: 1.0; stroke-dasharray: 7.0,7.0;"/><polygon fill="#A80036" points="507.8344,842.2709,500.0828,836.1953,502.9856,841.0506,498.1303,843.9534,507.8344,842.2709" style="stroke: #A80036; stroke-width: 1.0;"/><polygon fill="#A80036" points="175.5841,837.9264,183.7957,832.4886,178.2724,833.7106,177.0505,828.1873,175.5841,837.9264" style="stroke: #A80036; stroke-width: 1.0;"/><text fill="#000000" font-family="sans-serif" font-size="13" lengthAdjust="spacingAndGlyphs" textLength="49" x="214.4986" y="804.5684">gossips</text><!--link explorer_nginx to explorer_app--><path d="M178.9986,361.0689 C178.9986,392.9002 178.9986,458.9453 178.9986,494.3568 " fill="none" id="explorer_nginx-explorer_app" style="stroke: #A80036; stroke-width: 1.0; stroke-dasharray: 7.0,7.0;"/><polygon fill="#A80036" points="178.9986,499.7672,182.9986,490.7672,178.9986,494.7672,174.9986,490.7672,178.9986,499.7672" style="stroke: #A80036; stroke-width: 1.0;"/><text fill="#000000" font-family="sans-serif" font-size="13" lengthAdjust="spacingAndGlyphs" textLength="52" x="179.9986" y="435.5684">protects</text><!--link explorer_app to node_finder--><path d="M218.9177,518 C241.586,518 270.3567,518 295.4302,518 " fill="none" id="explorer_app-node_finder" style="stroke: #A80036; stroke-width: 1.0; stroke-dasharray: 7.0,7.0;"/><polygon fill="#A80036" points="300.721,518,291.721,514,295.721,518,291.721,522,300.721,518" style="stroke: #A80036; stroke-width: 1.0;"/><text fill="#000000" font-family="sans-serif" font-size="13" lengthAdjust="spacingAndGlyphs" textLength="46" x="236.7486" y="511.5684">queries</text><!--link explorer_app to nginx1--><path d="M139.2442,524.0112 C95.4002,531.5487 29.0416,545.9572 13.9986,566 C-20.9591,612.5764 73.8956,643.5205 129.2654,657.1136 " fill="none" id="explorer_app-nginx1" style="stroke: #A80036; stroke-width: 1.0; stroke-dasharray: 7.0,7.0;"/><polygon fill="#A80036" points="134.1662,658.2969,126.3567,652.296,129.3059,657.1232,124.4787,660.0724,134.1662,658.2969" style="stroke: #A80036; stroke-width: 1.0;"/><text fill="#000000" font-family="sans-serif" font-size="13" lengthAdjust="spacingAndGlyphs" textLength="69" x="14.9986" y="579.5684">aggregates</text><!--link explorer_app to nginx2--><path d="M147.9226,536.1585 C128.906,549.4812 110.7308,567.82 124.9986,583 C134.834,593.4642 240.429,586.299 253.9986,591 C286.2112,602.1597 317.6349,625.8843 338.002,643.4779 " fill="none" id="explorer_app-nginx2" style="stroke: #A80036; stroke-width: 1.0; stroke-dasharray: 7.0,7.0;"/><polygon fill="#A80036" points="341.9249,646.9093,337.7842,637.9732,338.1615,643.6174,332.5172,643.9947,341.9249,646.9093" style="stroke: #A80036; stroke-width: 1.0;"/><text fill="#000000" font-family="sans-serif" font-size="13" lengthAdjust="spacingAndGlyphs" textLength="69" x="125.9986" y="579.5684">aggregates</text><!--link explorer_app to nginxn--><path d="M218.5405,528.5593 C249.196,537.2433 292.4665,550.5967 328.9986,566 C343.8381,572.2569 345.4997,578.6248 360.9986,583 C388.6401,590.803 464.1638,578.45 489.9986,591 C512.9807,602.1643 531.499,625.2572 543.0044,642.6942 " fill="none" id="explorer_app-nginxn" style="stroke: #A80036; stroke-width: 1.0; stroke-dasharray: 7.0,7.0;"/><polygon fill="#A80036" points="545.7768,646.9948,544.2623,637.2631,543.0676,642.7924,537.5384,641.5977,545.7768,646.9948" style="stroke: #A80036; stroke-width: 1.0;"/><text fill="#000000" font-family="sans-serif" font-size="13" lengthAdjust="spacingAndGlyphs" textLength="69" x="361.9986" y="579.5684">aggregates</text><!--link node_finder to nginx1--><path d="M300.9707,532.2483 C279.3733,539.8813 254.9796,550.8902 235.9986,566 C209.7069,586.9296 188.9844,620.2555 177.1097,642.3775 " fill="none" id="node_finder-nginx1" style="stroke: #A80036; stroke-width: 1.0; stroke-dasharray: 7.0,7.0;"/><polygon fill="#A80036" points="174.7112,646.9195,182.4511,640.829,177.0461,642.4982,175.3769,637.0932,174.7112,646.9195" style="stroke: #A80036; stroke-width: 1.0;"/><text fill="#000000" font-family="sans-serif" font-size="13" lengthAdjust="spacingAndGlyphs" textLength="87" x="236.9986" y="579.5684">health checks</text><!--link node_finder to nginx2--><path d="M405.3442,535.5092 C419.0095,542.729 432.1056,552.6306 439.9986,566 C457.1359,595.0277 425.4202,624.7908 397.2149,643.9996 " fill="none" id="node_finder-nginx2" style="stroke: #A80036; stroke-width: 1.0; stroke-dasharray: 7.0,7.0;"/><polygon fill="#A80036" points="392.7262,646.9901,402.434,645.3289,396.8873,644.2179,397.9984,638.6712,392.7262,646.9901" style="stroke: #A80036; stroke-width: 1.0;"/><text fill="#000000" font-family="sans-serif" font-size="13" lengthAdjust="spacingAndGlyphs" textLength="87" x="444.9986" y="579.5684">health checks</text><!--link node_finder to nginxn--><path d="M405.3153,524.8287 C454.4288,532.3505 522.9717,546.0818 540.9986,566 C559.4652,586.4041 560.8287,619.4313 559.1802,641.6667 " fill="none" id="node_finder-nginxn" style="stroke: #A80036; stroke-width: 1.0; stroke-dasharray: 7.0,7.0;"/><polygon fill="#A80036" points="558.7329,646.7944,563.5,638.1761,559.1675,641.8133,555.5303,637.4808,558.7329,646.7944" style="stroke: #A80036; stroke-width: 1.0;"/><text fill="#000000" font-family="sans-serif" font-size="13" lengthAdjust="spacingAndGlyphs" textLength="87" x="551.9986" y="579.5684">health checks</text><!--link Community to CloudFlare--><path d="M178.9986,91.1893 C178.9986,114.186 178.9986,142.1407 178.9986,162.6091 " fill="none" id="Community-CloudFlare" style="stroke: #A80036; stroke-width: 1.0; stroke-dasharray: 7.0,7.0;"/><polygon fill="#A80036" points="178.9986,167.6441,182.9986,158.6441,178.9986,162.6441,174.9986,158.6441,178.9986,167.6441" style="stroke: #A80036; stroke-width: 1.0;"/><text fill="#000000" font-family="sans-serif" font-size="13" lengthAdjust="spacingAndGlyphs" textLength="192" x="183.9986" y="134.5684">https://www.radixdlt.com/1m</text><!--link CloudFlare to explorer_nginx--><path d="M178.9986,214.0855 C178.9986,242.7007 178.9986,291.1841 178.9986,319.8357 " fill="none" id="CloudFlare-explorer_nginx" style="stroke: #A80036; stroke-width: 1.0; stroke-dasharray: 7.0,7.0;"/><polygon fill="#A80036" points="178.9986,324.9456,182.9986,315.9456,178.9986,319.9456,174.9986,315.9456,178.9986,324.9456" style="stroke: #A80036; stroke-width: 1.0;"/><text fill="#000000" font-family="sans-serif" font-size="13" lengthAdjust="spacingAndGlyphs" textLength="52" x="179.9986" y="257.5684">protects</text><!--
@startuml

node CoreNode1 as "Core Node #1" {
    rectangle core1 as "Radix Core"
    rectangle nginx1 as "NGINX" 
    file atoms1 as "atoms.zst" 
    database ledger1 as "Ledger" 
    nginx1 ..> core1: protects
    core1 ..> atoms1: reads
    core1 ..> ledger1: persists
}

node CoreNode2 as "Core Node #2" {
    rectangle core2 as "Radix Core"
    rectangle nginx2 as "NGINX" 
    file atoms2 as "atoms.zst" 
    database ledger2 as "Ledger" 
    nginx2 ..> core2: protects
    core2 ..> atoms2: reads
    core2 ..> ledger2: persists
}

node CoreNodeN as "Core Node #N" {
    rectangle coren as "Radix Core"
    rectangle nginxn as "NGINX" 
    file atomsn as "atoms.zst" 
    database ledgern as "Ledger" 
    nginxn ..> coren : protects
    coren ..> atomsn: uses
    coren ..> ledgern: persists
}

core1 <.> core2 : gossips
core2 <.> coren : gossips
core1 <.> coren : gossips

node Explorer as "Explorer Node" {
    rectangle explorer_nginx as "NGINX"
    rectangle explorer_app as "Explorer" 
    rectangle node_finder as "Node Finder" 
    explorer_nginx ..> explorer_app: protects
    explorer_app .> node_finder : queries
    explorer_app ..> nginx1 : aggregates
    explorer_app ..> nginx2 : aggregates
    explorer_app ..> nginxn : aggregates
    node_finder ..> nginx1 : health checks
    node_finder ..> nginx2 : health checks
    node_finder ..> nginxn : health checks
}

node CloudFlare

:Community: ..> CloudFlare : " https://www.radixdlt.com/1m"
CloudFlare ..> explorer_nginx : protects

@enduml

PlantUML version 1.2019.03(Sun Mar 10 12:04:44 CET 2019)
(GPL source distribution)
Java Runtime: Java(TM) SE Runtime Environment
JVM: Java HotSpot(TM) 64-Bit Server VM
Java Version: 1.8.0_181-b13
Operating System: Mac OS X
OS Version: 10.14.4
Default Encoding: US-ASCII
Language: en
Country: SE
--></g></svg>