<?xml version="1.0" encoding="UTF-8"?>
<svg width="1600px" height="1207px" viewBox="0 0 1600 1207" version="1.1" xmlns="http://www.w3.org/2000/svg" xmlns:xlink="http://www.w3.org/1999/xlink">
    <!-- Generator: sketchtool 54.1 (76490) - https://sketchapp.com -->
    <title>F095509D-F7DE-42C2-998B-2DEFF087B688</title>
    <desc>Created with sketchtool.</desc>
    <defs>
        <linearGradient x1="81.0215558%" y1="36.7410802%" x2="42.001523%" y2="70.0178929%" id="linearGradient-1">
            <stop stop-color="#3ECF8E" offset="0%"></stop>
            <stop stop-color="#24B47E" offset="100%"></stop>
        </linearGradient>
        <linearGradient x1="81.0215558%" y1="35.9938591%" x2="42.001523%" y2="71.1460234%" id="linearGradient-2">
            <stop stop-color="#3ECF8E" offset="0%"></stop>
            <stop stop-color="#24B47E" offset="100%"></stop>
        </linearGradient>
        <linearGradient x1="81.0215558%" y1="38.6060677%" x2="42.001523%" y2="67.2021943%" id="linearGradient-3">
            <stop stop-color="#3ECF8E" offset="0%"></stop>
            <stop stop-color="#24B47E" offset="100%"></stop>
        </linearGradient>
        <path d="M1.03683384,340.039616 C1.03683384,340.039616 111.22654,416.298691 214.036834,411.828678 C283.586468,408.804781 344.347563,364.81059 411.036834,301.828678 C476.672045,239.842228 545.656017,155.828678 685.036834,155.828678 C876.036834,155.828678 905.810271,267.828678 1103.53683,267.828678 C1208.03683,267.828678 1299.88957,215.247488 1369.03683,158.828678 C1460.77888,83.9742745 1560.31745,0 1601.03683,0 C1601.7035,143.174208 1601.7035,357.117101 1601.03683,641.828678 C1564.37017,653.828678 1497.03683,704.828678 1399.03683,794.828678 C1294.29482,891.020323 1206.85259,926.828678 1143.03683,926.828678 C857.036834,926.828678 844.036834,814.038065 671.036834,814.038065 C470.036834,814.038065 369.036834,1087 255.036834,1088 C141.036834,1089 29.9040213,1015.82868 1.03683384,1002.65736 C0.217768645,1002.28364 0.0368338371,978.841908 0.0368338371,961.828678 C0.0368338371,778.016178 1.03683384,560.828678 1.03683384,438.680241 C1.03683384,377.568485 1.03683384,340.039616 1.03683384,340.039616 Z" id="path-4"></path>
        <linearGradient x1="34.4116021%" y1="58.8078374%" x2="67.6538475%" y2="13.0518573%" id="linearGradient-6">
            <stop stop-color="#2FC085" offset="0%"></stop>
            <stop stop-color="#24B47E" offset="100%"></stop>
        </linearGradient>
    </defs>
    <g id="Dizajn" stroke="none" stroke-width="1" fill="none" fill-rule="evenodd">
        <g id="01-01-00-V2" transform="translate(0.000000, -1107.000000)">
            <g id="Watch" transform="translate(-76.000000, 695.000000)">
                <g id="Background" transform="translate(875.500000, 1015.171322) scale(-1, 1) translate(-875.500000, -1015.171322) translate(74.000000, 411.171322)">
                    <path d="M2,406.828678 C41.7470703,424.422428 127,478.828678 204,478.828678 C291,478.828678 340.31073,423.81059 407,360.828678 C472.635212,298.842228 546.656017,187.657356 686.036834,187.657356 C877.036834,187.657356 894,333.657356 1140,333.657356 C1244.5,333.657356 1325,255.828678 1376,207.828678 C1461.92422,126.958822 1561.78061,13.8286781 1602.5,13.8286781 C1603.16667,157.002886 1603,394.002886 1602,724.828678 C1531.67935,769.544343 1480.34601,810.544343 1448,847.828678 C1317,998.828678 1223.12485,1044.52788 1148,1050.82868 C935.408736,1068.65891 881.205982,904.828678 675,904.828678 C605.666667,904.828678 526.333333,950.162011 437,1040.82868 C358.999809,1138.73786 297.999809,1187.73786 254,1187.82868 C171,1188 33.7776193,1118.5 2,1104.82868 C0.674868179,1104.25858 1,951.828678 1,938.828678 C1,938.828678 2,476.339691 2,428.828678 C2,417.828678 2,406.828678 2,406.828678 Z" id="Mask" fill="url(#linearGradient-1)" opacity="0.35"></path>
                    <path d="M2,394.828678 C46.7460937,406.828678 140,440.828678 209,434.828678 C277.978394,428.830557 371,373.828678 415,319.828678 C459,265.828678 540.619183,175.828678 680,175.828678 C837,175.828678 888,285.828678 1104.5,285.828678 C1209,285.828678 1300.85273,237.247488 1370,180.828678 C1461.74205,105.974275 1561.31745,0.828678068 1602.03683,0.828678068 C1602.7035,144.002886 1602.85789,406.669553 1602.5,788.828678 C1540.16667,819.495345 1491.66667,850.495345 1457,881.828678 C1334.6126,992.448057 1240.53744,1054.77997 1133,1059.82868 C1082.9642,1062.17778 1010,1062.82868 925,1019.82868 C840,976.828678 760.83695,950.828678 711,950.828678 C655.541806,950.828678 534.068087,939.947256 374,1128.82868 C324,1187.82902 285.312501,1228.08447 171,1195.82895 C136.610454,1186.12527 79.9437868,1160.85695 1,1120.02399 C1,705.116777 1,474.718339 1,428.828678 C1,401.070866 2,394.828678 2,394.828678 Z" id="Mask" fill="url(#linearGradient-2)" opacity="0.2"></path>
                    <g id="Mask" transform="translate(0.963166, 77.000000)">
                        <mask id="mask-5" fill="white">
                            <use xlink:href="#path-4"></use>
                        </mask>
                        <use fill="url(#linearGradient-3)" xlink:href="#path-4"></use>
                        <path d="M1074.99708,625.828678 C1130.02369,566.477236 1037.1487,635.37323 1146.93471,586.711035 C1256.72072,538.04884 1300.92731,425 1377.79285,425 C1450.36305,425 1440.38279,485.5 1559.43442,485.5 C1638.80218,485.5 1638.80218,594.557107 1559.43442,812.671322 L1124.33301,812.671322 C1054.75798,727.677187 1038.31267,665.396306 1074.99708,625.828678 Z" fill="url(#linearGradient-6)" opacity="0.6" mask="url(#mask-5)"></path>
                    </g>
                </g>
            </g>
        </g>
    </g>
</svg>