<?xml version="1.0" encoding="UTF-8"?>
<svg width="240px" height="240px" viewBox="0 0 240 240" version="1.1" xmlns="http://www.w3.org/2000/svg" xmlns:xlink="http://www.w3.org/1999/xlink">
    <!-- Generator: sketchtool 54.1 (76490) - https://sketchapp.com -->
    <title>F5E01EC4-A29D-460D-9ABC-2410369A9140</title>
    <desc>Created with sketchtool.</desc>
    <defs>
        <polygon id="path-1" points="0 0 260 0 260 260 0 260"></polygon>
    </defs>
    <g id="Dizajn" stroke="none" stroke-width="1" fill="none" fill-rule="evenodd" opacity="0.2">
        <g id="01-01-00-V2" transform="translate(-797.000000, -1707.000000)">
            <g id="Watch" transform="translate(-76.000000, 695.000000)">
                <g id="dots" transform="translate(873.000000, 1012.000000)">
                    <mask id="mask-2" fill="white">
                        <use xlink:href="#path-1"></use>
                    </mask>
                    <g id="Duplicate-control"></g>
                    <circle id="Oval" fill="#FFFFFF" mask="url(#mask-2)" cx="3" cy="3" r="3"></circle>
                    <circle id="Oval" fill="#FFFFFF" mask="url(#mask-2)" cx="3" cy="29" r="3"></circle>
                    <circle id="Oval" fill="#FFFFFF" mask="url(#mask-2)" cx="3" cy="55" r="3"></circle>
                    <circle id="Oval" fill="#FFFFFF" mask="url(#mask-2)" cx="3" cy="81" r="3"></circle>
                    <circle id="Oval" fill="#FFFFFF" mask="url(#mask-2)" cx="3" cy="107" r="3"></circle>
                    <circle id="Oval" fill="#FFFFFF" mask="url(#mask-2)" cx="3" cy="133" r="3"></circle>
                    <circle id="Oval" fill="#FFFFFF" mask="url(#mask-2)" cx="3" cy="159" r="3"></circle>
                    <circle id="Oval" fill="#FFFFFF" mask="url(#mask-2)" cx="3" cy="185" r="3"></circle>
                    <circle id="Oval" fill="#FFFFFF" mask="url(#mask-2)" cx="3" cy="211" r="3"></circle>
                    <circle id="Oval" fill="#FFFFFF" mask="url(#mask-2)" cx="3" cy="237" r="3"></circle>
                    <circle id="Oval" fill="#FFFFFF" mask="url(#mask-2)" cx="29" cy="3" r="3"></circle>
                    <circle id="Oval" fill="#FFFFFF" mask="url(#mask-2)" cx="29" cy="29" r="3"></circle>
                    <circle id="Oval" fill="#FFFFFF" mask="url(#mask-2)" cx="29" cy="55" r="3"></circle>
                    <circle id="Oval" fill="#FFFFFF" mask="url(#mask-2)" cx="29" cy="81" r="3"></circle>
                    <circle id="Oval" fill="#FFFFFF" mask="url(#mask-2)" cx="29" cy="107" r="3"></circle>
                    <circle id="Oval" fill="#FFFFFF" mask="url(#mask-2)" cx="29" cy="133" r="3"></circle>
                    <circle id="Oval" fill="#FFFFFF" mask="url(#mask-2)" cx="29" cy="159" r="3"></circle>
                    <circle id="Oval" fill="#FFFFFF" mask="url(#mask-2)" cx="29" cy="185" r="3"></circle>
                    <circle id="Oval" fill="#FFFFFF" mask="url(#mask-2)" cx="29" cy="211" r="3"></circle>
                    <circle id="Oval" fill="#FFFFFF" mask="url(#mask-2)" cx="29" cy="237" r="3"></circle>
                    <circle id="Oval" fill="#FFFFFF" mask="url(#mask-2)" cx="55" cy="3" r="3"></circle>
                    <circle id="Oval" fill="#FFFFFF" mask="url(#mask-2)" cx="55" cy="29" r="3"></circle>
                    <circle id="Oval" fill="#FFFFFF" mask="url(#mask-2)" cx="55" cy="55" r="3"></circle>
                    <circle id="Oval" fill="#FFFFFF" mask="url(#mask-2)" cx="55" cy="81" r="3"></circle>
                    <circle id="Oval" fill="#FFFFFF" mask="url(#mask-2)" cx="55" cy="107" r="3"></circle>
                    <circle id="Oval" fill="#FFFFFF" mask="url(#mask-2)" cx="55" cy="133" r="3"></circle>
                    <circle id="Oval" fill="#FFFFFF" mask="url(#mask-2)" cx="55" cy="159" r="3"></circle>
                    <circle id="Oval" fill="#FFFFFF" mask="url(#mask-2)" cx="55" cy="185" r="3"></circle>
                    <circle id="Oval" fill="#FFFFFF" mask="url(#mask-2)" cx="55" cy="211" r="3"></circle>
                    <circle id="Oval" fill="#FFFFFF" mask="url(#mask-2)" cx="55" cy="237" r="3"></circle>
                    <circle id="Oval" fill="#FFFFFF" mask="url(#mask-2)" cx="81" cy="3" r="3"></circle>
                    <circle id="Oval" fill="#FFFFFF" mask="url(#mask-2)" cx="81" cy="29" r="3"></circle>
                    <circle id="Oval" fill="#FFFFFF" mask="url(#mask-2)" cx="81" cy="55" r="3"></circle>
                    <circle id="Oval" fill="#FFFFFF" mask="url(#mask-2)" cx="81" cy="81" r="3"></circle>
                    <circle id="Oval" fill="#FFFFFF" mask="url(#mask-2)" cx="81" cy="107" r="3"></circle>
                    <circle id="Oval" fill="#FFFFFF" mask="url(#mask-2)" cx="81" cy="133" r="3"></circle>
                    <circle id="Oval" fill="#FFFFFF" mask="url(#mask-2)" cx="81" cy="159" r="3"></circle>
                    <circle id="Oval" fill="#FFFFFF" mask="url(#mask-2)" cx="81" cy="185" r="3"></circle>
                    <circle id="Oval" fill="#FFFFFF" mask="url(#mask-2)" cx="81" cy="211" r="3"></circle>
                    <circle id="Oval" fill="#FFFFFF" mask="url(#mask-2)" cx="81" cy="237" r="3"></circle>
                    <circle id="Oval" fill="#FFFFFF" mask="url(#mask-2)" cx="107" cy="3" r="3"></circle>
                    <circle id="Oval" fill="#FFFFFF" mask="url(#mask-2)" cx="107" cy="29" r="3"></circle>
                    <circle id="Oval" fill="#FFFFFF" mask="url(#mask-2)" cx="107" cy="55" r="3"></circle>
                    <circle id="Oval" fill="#FFFFFF" mask="url(#mask-2)" cx="107" cy="81" r="3"></circle>
                    <circle id="Oval" fill="#FFFFFF" mask="url(#mask-2)" cx="107" cy="107" r="3"></circle>
                    <circle id="Oval" fill="#FFFFFF" mask="url(#mask-2)" cx="107" cy="133" r="3"></circle>
                    <circle id="Oval" fill="#FFFFFF" mask="url(#mask-2)" cx="107" cy="159" r="3"></circle>
                    <circle id="Oval" fill="#FFFFFF" mask="url(#mask-2)" cx="107" cy="185" r="3"></circle>
                    <circle id="Oval" fill="#FFFFFF" mask="url(#mask-2)" cx="107" cy="211" r="3"></circle>
                    <circle id="Oval" fill="#FFFFFF" mask="url(#mask-2)" cx="107" cy="237" r="3"></circle>
                    <circle id="Oval" fill="#FFFFFF" mask="url(#mask-2)" cx="133" cy="3" r="3"></circle>
                    <circle id="Oval" fill="#FFFFFF" mask="url(#mask-2)" cx="133" cy="29" r="3"></circle>
                    <circle id="Oval" fill="#FFFFFF" mask="url(#mask-2)" cx="133" cy="55" r="3"></circle>
                    <circle id="Oval" fill="#FFFFFF" mask="url(#mask-2)" cx="133" cy="81" r="3"></circle>
                    <circle id="Oval" fill="#FFFFFF" mask="url(#mask-2)" cx="133" cy="107" r="3"></circle>
                    <circle id="Oval" fill="#FFFFFF" mask="url(#mask-2)" cx="133" cy="133" r="3"></circle>
                    <circle id="Oval" fill="#FFFFFF" mask="url(#mask-2)" cx="133" cy="159" r="3"></circle>
                    <circle id="Oval" fill="#FFFFFF" mask="url(#mask-2)" cx="133" cy="185" r="3"></circle>
                    <circle id="Oval" fill="#FFFFFF" mask="url(#mask-2)" cx="133" cy="211" r="3"></circle>
                    <circle id="Oval" fill="#FFFFFF" mask="url(#mask-2)" cx="133" cy="237" r="3"></circle>
                    <circle id="Oval" fill="#FFFFFF" mask="url(#mask-2)" cx="159" cy="3" r="3"></circle>
                    <circle id="Oval" fill="#FFFFFF" mask="url(#mask-2)" cx="159" cy="29" r="3"></circle>
                    <circle id="Oval" fill="#FFFFFF" mask="url(#mask-2)" cx="159" cy="55" r="3"></circle>
                    <circle id="Oval" fill="#FFFFFF" mask="url(#mask-2)" cx="159" cy="81" r="3"></circle>
                    <circle id="Oval" fill="#FFFFFF" mask="url(#mask-2)" cx="159" cy="107" r="3"></circle>
                    <circle id="Oval" fill="#FFFFFF" mask="url(#mask-2)" cx="159" cy="133" r="3"></circle>
                    <circle id="Oval" fill="#FFFFFF" mask="url(#mask-2)" cx="159" cy="159" r="3"></circle>
                    <circle id="Oval" fill="#FFFFFF" mask="url(#mask-2)" cx="159" cy="185" r="3"></circle>
                    <circle id="Oval" fill="#FFFFFF" mask="url(#mask-2)" cx="159" cy="211" r="3"></circle>
                    <circle id="Oval" fill="#FFFFFF" mask="url(#mask-2)" cx="159" cy="237" r="3"></circle>
                    <circle id="Oval" fill="#FFFFFF" mask="url(#mask-2)" cx="185" cy="3" r="3"></circle>
                    <circle id="Oval" fill="#FFFFFF" mask="url(#mask-2)" cx="185" cy="29" r="3"></circle>
                    <circle id="Oval" fill="#FFFFFF" mask="url(#mask-2)" cx="185" cy="55" r="3"></circle>
                    <circle id="Oval" fill="#FFFFFF" mask="url(#mask-2)" cx="185" cy="81" r="3"></circle>
                    <circle id="Oval" fill="#FFFFFF" mask="url(#mask-2)" cx="185" cy="107" r="3"></circle>
                    <circle id="Oval" fill="#FFFFFF" mask="url(#mask-2)" cx="185" cy="133" r="3"></circle>
                    <circle id="Oval" fill="#FFFFFF" mask="url(#mask-2)" cx="185" cy="159" r="3"></circle>
                    <circle id="Oval" fill="#FFFFFF" mask="url(#mask-2)" cx="185" cy="185" r="3"></circle>
                    <circle id="Oval" fill="#FFFFFF" mask="url(#mask-2)" cx="185" cy="211" r="3"></circle>
                    <circle id="Oval" fill="#FFFFFF" mask="url(#mask-2)" cx="185" cy="237" r="3"></circle>
                    <circle id="Oval" fill="#FFFFFF" mask="url(#mask-2)" cx="211" cy="3" r="3"></circle>
                    <circle id="Oval" fill="#FFFFFF" mask="url(#mask-2)" cx="211" cy="29" r="3"></circle>
                    <circle id="Oval" fill="#FFFFFF" mask="url(#mask-2)" cx="211" cy="55" r="3"></circle>
                    <circle id="Oval" fill="#FFFFFF" mask="url(#mask-2)" cx="211" cy="81" r="3"></circle>
                    <circle id="Oval" fill="#FFFFFF" mask="url(#mask-2)" cx="211" cy="107" r="3"></circle>
                    <circle id="Oval" fill="#FFFFFF" mask="url(#mask-2)" cx="211" cy="133" r="3"></circle>
                    <circle id="Oval" fill="#FFFFFF" mask="url(#mask-2)" cx="211" cy="159" r="3"></circle>
                    <circle id="Oval" fill="#FFFFFF" mask="url(#mask-2)" cx="211" cy="185" r="3"></circle>
                    <circle id="Oval" fill="#FFFFFF" mask="url(#mask-2)" cx="211" cy="211" r="3"></circle>
                    <circle id="Oval" fill="#FFFFFF" mask="url(#mask-2)" cx="211" cy="237" r="3"></circle>
                    <circle id="Oval" fill="#FFFFFF" mask="url(#mask-2)" cx="237" cy="3" r="3"></circle>
                    <circle id="Oval" fill="#FFFFFF" mask="url(#mask-2)" cx="237" cy="29" r="3"></circle>
                    <circle id="Oval" fill="#FFFFFF" mask="url(#mask-2)" cx="237" cy="55" r="3"></circle>
                    <circle id="Oval" fill="#FFFFFF" mask="url(#mask-2)" cx="237" cy="81" r="3"></circle>
                    <circle id="Oval" fill="#FFFFFF" mask="url(#mask-2)" cx="237" cy="107" r="3"></circle>
                    <circle id="Oval" fill="#FFFFFF" mask="url(#mask-2)" cx="237" cy="133" r="3"></circle>
                    <circle id="Oval" fill="#FFFFFF" mask="url(#mask-2)" cx="237" cy="159" r="3"></circle>
                    <circle id="Oval" fill="#FFFFFF" mask="url(#mask-2)" cx="237" cy="185" r="3"></circle>
                    <circle id="Oval" fill="#FFFFFF" mask="url(#mask-2)" cx="237" cy="211" r="3"></circle>
                    <circle id="Oval" fill="#FFFFFF" mask="url(#mask-2)" cx="237" cy="237" r="3"></circle>
                </g>
            </g>
        </g>
    </g>
</svg>