<?xml version="1.0" encoding="UTF-8"?>
<svg width="176px" height="133px" viewBox="0 0 176 133" version="1.1" xmlns="http://www.w3.org/2000/svg" xmlns:xlink="http://www.w3.org/1999/xlink">
    <!-- Generator: Sketch 55.1 (78136) - https://sketchapp.com -->
    <title>Oval 2@2x</title>
    <desc>Created with Sketch.</desc>
    <defs>
        <polygon id="path-1" points="0 0 285.721925 0 285.721925 260 0 260"></polygon>
    </defs>
    <g id="Dizajn" stroke="none" stroke-width="1" fill="none" fill-rule="evenodd" opacity="0.3">
        <g id="01-02-00-V2" transform="translate(-594.000000, -915.000000)">
            <g id="Normal" transform="translate(160.000000, 823.000000)">
                <g id="2" transform="translate(434.000000, 0.000000)">
                    <g id="Oval-2">
                        <g transform="translate(-88.000000, 92.000000)">
                            <mask id="mask-2" fill="white">
                                <use xlink:href="#path-1"></use>
                            </mask>
                            <g id="Duplicate-control"></g>
                            <ellipse id="Oval" fill="#DBDDE0" mask="url(#mask-2)" cx="89.013369" cy="3" rx="3.29679144" ry="3"></ellipse>
                            <ellipse id="Oval" fill="#DBDDE0" mask="url(#mask-2)" cx="89.013369" cy="29" rx="3.29679144" ry="3"></ellipse>
                            <ellipse id="Oval" fill="#DBDDE0" mask="url(#mask-2)" cx="89.013369" cy="55" rx="3.29679144" ry="3"></ellipse>
                            <ellipse id="Oval" fill="#DBDDE0" mask="url(#mask-2)" cx="89.013369" cy="81" rx="3.29679144" ry="3"></ellipse>
                            <ellipse id="Oval" fill="#DBDDE0" mask="url(#mask-2)" cx="89.013369" cy="107" rx="3.29679144" ry="3"></ellipse>
                            <ellipse id="Oval" fill="#DBDDE0" mask="url(#mask-2)" cx="89.013369" cy="133" rx="3.29679144" ry="3"></ellipse>
                            <ellipse id="Oval" fill="#DBDDE0" mask="url(#mask-2)" cx="117.585561" cy="3" rx="3.29679144" ry="3"></ellipse>
                            <ellipse id="Oval" fill="#DBDDE0" mask="url(#mask-2)" cx="117.585561" cy="29" rx="3.29679144" ry="3"></ellipse>
                            <ellipse id="Oval" fill="#DBDDE0" mask="url(#mask-2)" cx="117.585561" cy="55" rx="3.29679144" ry="3"></ellipse>
                            <ellipse id="Oval" fill="#DBDDE0" mask="url(#mask-2)" cx="117.585561" cy="81" rx="3.29679144" ry="3"></ellipse>
                            <ellipse id="Oval" fill="#DBDDE0" mask="url(#mask-2)" cx="117.585561" cy="107" rx="3.29679144" ry="3"></ellipse>
                            <ellipse id="Oval" fill="#DBDDE0" mask="url(#mask-2)" cx="117.585561" cy="133" rx="3.29679144" ry="3"></ellipse>
                            <ellipse id="Oval" fill="#DBDDE0" mask="url(#mask-2)" cx="146.157754" cy="3" rx="3.29679144" ry="3"></ellipse>
                            <ellipse id="Oval" fill="#DBDDE0" mask="url(#mask-2)" cx="146.157754" cy="29" rx="3.29679144" ry="3"></ellipse>
                            <ellipse id="Oval" fill="#DBDDE0" mask="url(#mask-2)" cx="146.157754" cy="55" rx="3.29679144" ry="3"></ellipse>
                            <ellipse id="Oval" fill="#DBDDE0" mask="url(#mask-2)" cx="146.157754" cy="81" rx="3.29679144" ry="3"></ellipse>
                            <ellipse id="Oval" fill="#DBDDE0" mask="url(#mask-2)" cx="146.157754" cy="107" rx="3.29679144" ry="3"></ellipse>
                            <ellipse id="Oval" fill="#DBDDE0" mask="url(#mask-2)" cx="146.157754" cy="133" rx="3.29679144" ry="3"></ellipse>
                            <ellipse id="Oval" fill="#DBDDE0" mask="url(#mask-2)" cx="174.729947" cy="3" rx="3.29679144" ry="3"></ellipse>
                            <ellipse id="Oval" fill="#DBDDE0" mask="url(#mask-2)" cx="174.729947" cy="29" rx="3.29679144" ry="3"></ellipse>
                            <ellipse id="Oval" fill="#DBDDE0" mask="url(#mask-2)" cx="174.729947" cy="55" rx="3.29679144" ry="3"></ellipse>
                            <ellipse id="Oval" fill="#DBDDE0" mask="url(#mask-2)" cx="174.729947" cy="81" rx="3.29679144" ry="3"></ellipse>
                            <ellipse id="Oval" fill="#DBDDE0" mask="url(#mask-2)" cx="174.729947" cy="107" rx="3.29679144" ry="3"></ellipse>
                            <ellipse id="Oval" fill="#DBDDE0" mask="url(#mask-2)" cx="174.729947" cy="133" rx="3.29679144" ry="3"></ellipse>
                            <ellipse id="Oval" fill="#DBDDE0" mask="url(#mask-2)" cx="203.302139" cy="3" rx="3.29679144" ry="3"></ellipse>
                            <ellipse id="Oval" fill="#DBDDE0" mask="url(#mask-2)" cx="203.302139" cy="29" rx="3.29679144" ry="3"></ellipse>
                            <ellipse id="Oval" fill="#DBDDE0" mask="url(#mask-2)" cx="203.302139" cy="55" rx="3.29679144" ry="3"></ellipse>
                            <ellipse id="Oval" fill="#DBDDE0" mask="url(#mask-2)" cx="203.302139" cy="81" rx="3.29679144" ry="3"></ellipse>
                            <ellipse id="Oval" fill="#DBDDE0" mask="url(#mask-2)" cx="203.302139" cy="107" rx="3.29679144" ry="3"></ellipse>
                            <ellipse id="Oval" fill="#DBDDE0" mask="url(#mask-2)" cx="203.302139" cy="133" rx="3.29679144" ry="3"></ellipse>
                            <ellipse id="Oval" fill="#DBDDE0" mask="url(#mask-2)" cx="231.874332" cy="3" rx="3.29679144" ry="3"></ellipse>
                            <ellipse id="Oval" fill="#DBDDE0" mask="url(#mask-2)" cx="231.874332" cy="29" rx="3.29679144" ry="3"></ellipse>
                            <ellipse id="Oval" fill="#DBDDE0" mask="url(#mask-2)" cx="231.874332" cy="55" rx="3.29679144" ry="3"></ellipse>
                            <ellipse id="Oval" fill="#DBDDE0" mask="url(#mask-2)" cx="231.874332" cy="81" rx="3.29679144" ry="3"></ellipse>
                            <ellipse id="Oval" fill="#DBDDE0" mask="url(#mask-2)" cx="231.874332" cy="107" rx="3.29679144" ry="3"></ellipse>
                            <ellipse id="Oval" fill="#DBDDE0" mask="url(#mask-2)" cx="231.874332" cy="133" rx="3.29679144" ry="3"></ellipse>
                            <ellipse id="Oval" fill="#DBDDE0" mask="url(#mask-2)" cx="260.446524" cy="3" rx="3.29679144" ry="3"></ellipse>
                            <ellipse id="Oval" fill="#DBDDE0" mask="url(#mask-2)" cx="260.446524" cy="29" rx="3.29679144" ry="3"></ellipse>
                            <ellipse id="Oval" fill="#DBDDE0" mask="url(#mask-2)" cx="260.446524" cy="55" rx="3.29679144" ry="3"></ellipse>
                            <ellipse id="Oval" fill="#DBDDE0" mask="url(#mask-2)" cx="260.446524" cy="81" rx="3.29679144" ry="3"></ellipse>
                            <ellipse id="Oval" fill="#DBDDE0" mask="url(#mask-2)" cx="260.446524" cy="107" rx="3.29679144" ry="3"></ellipse>
                            <ellipse id="Oval" fill="#DBDDE0" mask="url(#mask-2)" cx="260.446524" cy="133" rx="3.29679144" ry="3"></ellipse>
                        </g>
                    </g>
                </g>
            </g>
        </g>
    </g>
</svg>