<?xml version="1.0" encoding="UTF-8"?>
<svg width="67px" height="67px" viewBox="0 0 67 67" version="1.1" xmlns="http://www.w3.org/2000/svg" xmlns:xlink="http://www.w3.org/1999/xlink">
    <!-- Generator: Sketch 54.1 (76490) - https://sketchapp.com -->
    <title>Group 8@3x</title>
    <desc>Created with Sketch.</desc>
    <g id="Dizajn" stroke="none" stroke-width="1" fill="none" fill-rule="evenodd">
        <g id="01-02-00-V2" transform="translate(-625.000000, -854.000000)">
            <g id="Normal" transform="translate(160.000000, 823.000000)">
                <g id="2" transform="translate(434.000000, 0.000000)">
                    <g id="Group-8" transform="translate(32.000000, 31.999978)">
                        <circle id="Oval" stroke="#24B47E" stroke-width="1.3" fill-opacity="0.2" fill="#24B47E" cx="32.5" cy="32.5000221" r="32.5"></circle>
                        <g id="watch" transform="translate(24.000000, 18.000022)"></g>
                        <ellipse id="Oval" stroke="#24B47E" stroke-width="2" stroke-linecap="round" stroke-linejoin="round" cx="33" cy="32.5000221" rx="9" ry="9.22727273"></ellipse>
                        <polyline id="Path" stroke="#24B47E" stroke-width="2" stroke-linecap="round" stroke-linejoin="round" points="33 28.5454766 33 32.5000221 34.9285714 34.4772948"></polyline>
                        <path d="M38.7985714,39.5522948 L38.3485714,44.6009312 C38.2284781,45.963572 37.1116248,47.0055735 35.7771429,47.0000221 L30.21,47.0000221 C28.8755181,47.0055735 27.7586648,45.963572 27.6385714,44.6009312 L27.1885714,39.5522948 M27.2014286,25.4477494 L27.6514286,20.399113 C27.7710878,19.041517 28.8804473,18.0013059 30.21,18.0000221 L35.8028571,18.0000221 C37.1373391,17.9944707 38.2541923,19.0364722 38.3742857,20.399113 L38.8242857,25.4477494" id="Shape" stroke="#24B47E" stroke-width="2" stroke-linecap="round" stroke-linejoin="round"></path>
                    </g>
                </g>
            </g>
        </g>
    </g>
</svg>