<?xml version="1.0" encoding="UTF-8"?>
<svg width="34px" height="34px" viewBox="0 0 34 34" version="1.1" xmlns="http://www.w3.org/2000/svg" xmlns:xlink="http://www.w3.org/1999/xlink">
    <!-- Generator: Sketch 54.1 (76490) - https://sketchapp.com -->
    <title>icon 3@1,5x</title>
    <desc>Created with Sketch.</desc>
    <g id="Dizajn" stroke="none" stroke-width="1" fill="none" fill-rule="evenodd">
        <g id="01-01-00-V2" transform="translate(-982.000000, -2677.000000)" stroke="#24B47E">
            <g id="footer" transform="translate(0.000000, 1817.000000)">
                <g id="Footer">
                    <g id="Right" transform="translate(882.000000, 622.000000)">
                        <g id="Icon" transform="translate(3.000000, 237.000000)">
                            <g id="Group-6" transform="translate(96.636700, 0.159200)">
                                <path d="M33,18 C33,26.837 25.837,34 17,34 C8.164,34 1,26.837 1,18 C1,9.163 8.164,2 17,2 C25.837,2 33,9.163 33,18 Z" id="Stroke-360"></path>
                                <path d="M19.6768,19.9345 C18.8688,19.9345 18.2138,19.2395 18.2138,18.3795 C18.2138,17.5215 18.8688,16.8265 19.6768,16.8265 C20.4858,16.8265 21.1408,17.5215 21.1408,18.3795 C21.1408,19.2385 20.4858,19.9345 19.6768,19.9345 Z M14.3068,19.9345 C13.4988,19.9345 12.8438,19.2395 12.8438,18.3795 C12.8438,17.5215 13.4988,16.8265 14.3068,16.8265 C15.1148,16.8265 15.7708,17.5215 15.7708,18.3795 C15.7708,19.2385 15.1148,19.9345 14.3068,19.9345 Z M23.3568,12.8605 C23.3568,12.8605 22.1208,11.5525 19.3158,11.3635 L19.3158,11.7765 C19.3158,11.7765 20.8548,11.6865 22.7598,13.5615 C21.3218,12.5275 19.2708,11.8795 16.9918,11.8795 C14.7138,11.8795 12.6628,12.5275 11.2248,13.5615 C13.1298,11.6865 14.6688,11.7765 14.6688,11.7765 L14.6688,11.3635 C11.8638,11.5525 10.6268,12.8605 10.6268,12.8605 C8.4888,15.6145 8.3688,21.6385 8.3688,21.6385 C10.3828,24.0655 12.9128,23.7555 12.9128,23.7555 L13.8428,22.4135 C12.6438,22.0885 11.7878,21.3445 11.2738,20.7645 C12.7088,21.7795 14.7398,22.4135 16.9918,22.4135 C19.2448,22.4135 21.2758,21.7795 22.7108,20.7645 C22.1968,21.3445 21.3408,22.0885 20.1418,22.4135 L21.0718,23.7555 C21.0718,23.7555 23.6018,24.0655 25.6148,21.6385 C25.6148,21.6385 25.4948,15.6145 23.3568,12.8605 Z" id="Stroke-362"></path>
                            </g>
                        </g>
                    </g>
                </g>
            </g>
        </g>
    </g>
</svg>