<?xml version="1.0" encoding="UTF-8"?>
<svg width="121px" height="31px" viewBox="0 0 121 31" version="1.1" xmlns="http://www.w3.org/2000/svg" xmlns:xlink="http://www.w3.org/1999/xlink">
    <!-- Generator: Sketch 54.1 (76490) - https://sketchapp.com -->
    <title>logo / white@3x</title>
    <desc>Created with Sketch.</desc>
    <g id="Dizajn" stroke="none" stroke-width="1" fill="none" fill-rule="evenodd">
        <g id="01-01-00-V2" transform="translate(-352.000000, -2440.000000)">
            <g id="footer" transform="translate(0.000000, 1817.000000)">
                <g id="Footer">
                    <g id="Left" transform="translate(351.000000, 623.000000)">
                        <g id="logo-/-white" transform="translate(1.000000, 0.000000)">
                            <g id="Logo">
                                <path d="M36.833,21.8066 C39.119,21.8066 40.574,20.6126 40.574,18.7676 L40.574,18.7156 C40.574,16.7676 39.171,15.7026 36.808,15.7026 L32.157,15.7026 L32.157,21.8066 L36.833,21.8066 Z M28.963,12.7926 L37.067,12.7926 C39.354,12.7926 41.145,13.4676 42.314,14.6116 C43.275,15.5986 43.821,16.9496 43.821,18.5346 L43.821,18.5856 C43.821,21.5736 42.028,23.3656 39.509,24.0926 L44.419,30.9766 L40.626,30.9766 L36.158,24.6386 L32.157,24.6386 L32.157,30.9766 L28.963,30.9766 L28.963,12.7926 Z" id="Fill-370" fill="#FFFFFF"></path>
                                <path d="M61.3564,23.7549 L58.2124,16.4819 L55.0954,23.7549 L61.3564,23.7549 Z M56.7844,12.6629 L59.7464,12.6629 L67.7464,30.9769 L64.3694,30.9769 L62.5254,26.5869 L53.9264,26.5869 L52.0564,30.9769 L48.7834,30.9769 L56.7844,12.6629 Z" id="Fill-372" fill="#FFFFFF"></path>
                                <path d="M76.1377,15.7021 L76.1377,28.0671 L79.7227,28.0671 C83.5407,28.0671 86.0347,25.4951 86.0347,21.9361 L86.0347,21.8851 C86.0347,18.3261 83.5407,15.7021 79.7227,15.7021 L76.1377,15.7021 Z M72.9427,12.7931 L79.7227,12.7931 C85.4377,12.7931 89.3857,16.7161 89.3857,21.8331 L89.3857,21.8851 C89.3857,27.0021 85.4377,30.9761 79.7227,30.9761 L72.9427,30.9761 L72.9427,12.7931 Z" id="Fill-374" fill="#FFFFFF"></path>
                                <polygon id="Fill-376" fill="#FFFFFF" points="94.998 30.977 98.193 30.977 98.193 12.793 94.998 12.793"></polygon>
                                <polygon id="Fill-378" fill="#FFFFFF" points="120.5078 12.793 114.1688 21.677 120.7668 30.977 117.0008 30.977 112.1948 24.041 107.4148 30.977 103.7518 30.977 110.3238 21.729 104.0118 12.793 107.7788 12.793 112.2988 19.391 116.8448 12.793"></polygon>
                                <path d="M14.0791,27.1523 C13.5021,27.1523 12.9541,26.8763 12.6121,26.4023 L5.4421,16.4673 L0.7661,16.4673 L0.7661,12.8493 L6.3671,12.8493 C6.9481,12.8493 7.4941,13.1293 7.8341,13.6003 L13.6921,21.7163 L22.6321,1.2973 C22.9201,0.6383 23.5701,0.2143 24.2891,0.2143 L35.4631,0.2143 L35.4631,3.8323 L25.4721,3.8323 L15.7361,26.0683 C15.4751,26.6643 14.9171,27.0733 14.2701,27.1423 C14.2071,27.1493 14.1421,27.1523 14.0791,27.1523" id="Fill-379" fill="#24B47E"></path>
                            </g>
                        </g>
                    </g>
                </g>
            </g>
        </g>
    </g>
</svg>