<?xml version="1.0" encoding="UTF-8"?>
<svg width="120px" height="31px" viewBox="0 0 120 31" version="1.1" xmlns="http://www.w3.org/2000/svg" xmlns:xlink="http://www.w3.org/1999/xlink">
    <!-- Generator: Sketch 54.1 (76490) - https://sketchapp.com -->
    <title>Logo</title>
    <desc>Created with Sketch.</desc>
    <g id="Dizajn" stroke="none" stroke-width="1" fill="none" fill-rule="evenodd">
        <g id="01-01-00-V2" transform="translate(-160.000000, -47.000000)">
            <g id="Head" transform="translate(160.000000, 46.000000)">
                <g id="Logo" transform="translate(0.000000, 1.000000)">
                    <g>
                        <path d="M36.022361,21.7550324 C38.3055805,21.7550324 39.7584585,20.5510514 39.7584585,18.6931181 L39.7584585,18.6405657 C39.7584585,16.6778229 38.3573854,15.6046324 35.9963122,15.6046324 L31.3523122,15.6046324 L31.3523122,21.7550324 L36.022361,21.7550324 Z M28.1608976,12.6735086 L36.2556293,12.6735086 C38.5388488,12.6735086 40.3291902,13.3537371 41.4969951,14.505461 C42.4567024,15.5001181 43.001678,16.8608705 43.001678,18.4572229 L43.001678,18.5097752 C43.001678,21.5194324 41.2113366,23.3254038 38.6948488,24.0581848 L43.5981659,30.9936229 L39.8102634,30.9936229 L35.3477268,24.6076229 L31.3523122,24.6076229 L31.3523122,30.9936229 L28.1608976,30.9936229 L28.1608976,12.6735086 Z" id="Fill-2" fill="#32354E"></path>
                        <path d="M60.5153854,23.7178933 L57.3757756,16.3897886 L54.2625073,23.7178933 L60.5153854,23.7178933 Z M55.9489463,12.542541 L58.9065073,12.542541 L66.8976293,30.993741 L63.5250439,30.993741 L61.6828976,26.5704838 L53.0949951,26.5704838 L51.2270927,30.993741 L47.9578244,30.993741 L55.9489463,12.542541 Z" id="Fill-4" fill="#32354E"></path>
                        <path d="M75.2788683,15.6046619 L75.2788683,28.0625286 L78.8592585,28.0625286 C82.6735024,28.0625286 85.1639415,25.471519 85.1639415,21.8858524 L85.1639415,21.8335952 C85.1639415,18.2479286 82.6735024,15.6046619 78.8592585,15.6046619 L75.2788683,15.6046619 Z M72.0877463,12.6735381 L78.8592585,12.6735381 C84.567161,12.6735381 88.5110634,16.6253 88.5110634,21.7813381 L88.5110634,21.8335952 C88.5110634,26.9893381 84.567161,30.9936524 78.8592585,30.9936524 L72.0877463,30.9936524 L72.0877463,12.6735381 Z" id="Fill-6" fill="#32354E"></path>
                        <polygon id="Fill-8" fill="#32354E" points="94.1159122 30.9936524 97.3070341 30.9936524 97.3070341 12.6735381 94.1159122 12.6735381"></polygon>
                        <polygon id="Fill-10" fill="#32354E" points="119.594341 12.6733905 113.26361 21.6241238 119.853951 30.9935048 116.091805 30.9935048 111.291805 24.0058095 106.517854 30.9935048 102.85961 30.9935048 109.423902 21.676381 103.11922 12.6733905 106.881073 12.6733905 111.395707 19.3209714 115.936098 12.6733905"></polygon>
                        <path d="M13.2954146,27.1406476 C12.719122,27.1406476 12.1723902,26.8625333 11.8308293,26.3848381 L4.66917073,16.3759714 L0,16.3759714 L0,12.7309619 L5.5937561,12.7309619 C6.17385366,12.7309619 6.71882927,13.0120286 7.05863415,13.4867714 L12.9093659,21.663981 L21.8382439,1.09149524 C22.1262439,0.428390476 22.7757073,0 23.4933659,0 L34.6533659,0 L34.6533659,3.64500952 L24.6749268,3.64500952 L14.9508293,26.0488571 C14.6909268,26.6481905 14.1321951,27.0609333 13.4874146,27.1303143 C13.4233171,27.1374 13.3589268,27.1406476 13.2954146,27.1406476" id="Fill-11" fill="#3ECF8E"></path>
                    </g>
                </g>
            </g>
        </g>
    </g>
</svg>