<?xml version="1.0" encoding="UTF-8"?>
<svg width="1600px" height="1096px" viewBox="0 0 1600 1096" version="1.1" xmlns="http://www.w3.org/2000/svg" xmlns:xlink="http://www.w3.org/1999/xlink">
    <!-- Generator: sketchtool 54.1 (76490) - https://sketchapp.com -->
    <title>8F9E0FC0-E608-4B54-B49C-51317105727B</title>
    <desc>Created with sketchtool.</desc>
    <defs>
        <linearGradient x1="69.1506705%" y1="43.4299589%" x2="22.9126146%" y2="75.1641186%" id="linearGradient-1">
            <stop stop-color="#FFFFFF" offset="0%"></stop>
            <stop stop-color="#E4E5E8" offset="100%"></stop>
        </linearGradient>
        <linearGradient x1="28.9495852%" y1="57.5174006%" x2="17.944161%" y2="79.4288587%" id="linearGradient-2">
            <stop stop-color="#FFFFFF" offset="0%"></stop>
            <stop stop-color="#A3ADB7" offset="100%"></stop>
        </linearGradient>
    </defs>
    <g id="Dizajn" stroke="none" stroke-width="1" fill="none" fill-rule="evenodd">
        <g id="01-01-00-V2" transform="translate(0.000000, -690.000000)">
            <g id="Background" transform="translate(812.000000, 1157.000000) scale(-1, -1) translate(-812.000000, -1157.000000) translate(-2.000000, 528.000000)">
                <path d="M1627.5,96.8286781 C1628.16667,240.002886 1627,479.07692 1624,814.050781 C1624.39323,816.220052 1598.9362,842.869792 1547.62891,894 C1470.66797,970.695313 1320.68359,1095.1875 1232.00391,1095.1875 C1096.31746,1095.1875 1114.6098,1052.26624 1055.94141,1045.23828 C1017.11777,1040.58755 903.938591,1081.21279 836.050781,1054.30469 C744.801356,1018.13695 699.117187,943.058594 531.808594,974.136719 C364.5,1005.21484 351.898437,1045.64454 226,1074.39453 C79.2410242,1107.90821 65.90625,1090.38281 23,1065.30469 C21.7868683,1064.59563 21,1010.58984 21,997.589844 C21,997.589844 23,182.339691 23,134.828678 C23,123.828678 1586.78061,96.8286781 1627.5,96.8286781 Z" id="Mask" fill="url(#linearGradient-1)" opacity="0.35"></path>
                <path d="M22,96 C69.0039063,96 1622,-118.761312 1623,96 C1623.66667,239.174208 1624.5,474.450434 1625.5,801.828678 C1589.83333,839.162011 1554.66667,873.495345 1520,904.828678 C1397.6126,1015.44806 1303.53744,1077.77997 1196,1082.82868 C1145.9642,1085.17778 1073,1085.82868 988,1042.82868 C903,999.828678 795.894531,1033.82813 736.363281,1028.41406 C676.832031,1023 557.695313,891.866634 388,980.78125 C310.26242,1021.51312 185.88302,1077.15815 69.3046875,1049.35547 C10.765625,1035.39453 -3.68154878,1009.3138 25.9631662,971.113281 C24.6543887,710.813207 24,557.718339 24,511.828678 C24,484.070866 22,96 22,96 Z" id="Mask" fill="url(#linearGradient-2)" opacity="0.2"></path>
                <g id="Mask" transform="translate(21.963166, 271.000000)"></g>
            </g>
        </g>
    </g>
</svg>