<?xml version="1.0" encoding="UTF-8"?>
<svg width="34px" height="34px" viewBox="0 0 34 34" version="1.1" xmlns="http://www.w3.org/2000/svg" xmlns:xlink="http://www.w3.org/1999/xlink">
    <!-- Generator: Sketch 54.1 (76490) - https://sketchapp.com -->
    <title>Medium@1,5x</title>
    <desc>Created with Sketch.</desc>
    <g id="Dizajn" stroke="none" stroke-width="1" fill="none" fill-rule="evenodd">
        <g id="01-01-00-V2" transform="translate(-1078.000000, -2678.000000)">
            <g id="footer" transform="translate(0.000000, 1817.000000)">
                <g id="Footer">
                    <g id="Right" transform="translate(882.000000, 622.000000)">
                        <g id="Icon" transform="translate(3.000000, 237.000000)">
                            <g id="Mdeium" transform="translate(192.117200, 1.761700)">
                                <path d="M34,17 C34,25.837 26.837,33 18,33 C9.164,33 2,25.837 2,17 C2,8.164 9.164,1 18,1 C26.837,1 34,8.164 34,17 Z" id="Stroke-1709" stroke="#24B47E"></path>
                                <path d="M25.0791,13.209 L24.2981,13.209 C24.0941,13.209 23.5611,13.43 23.5611,13.618 L23.5611,20.449 C23.5611,20.638 24.0941,20.792 24.2981,20.792 L25.0791,20.792 L25.0791,22.309 L20.0221,22.309 L20.0221,20.792 L21.0341,20.792 L21.0341,13.714 L20.8581,13.714 L18.4251,22.309 L16.5401,22.309 L14.1381,13.714 L13.9561,13.714 L13.9561,20.792 L14.9671,20.792 L14.9671,22.309 L10.9221,22.309 L10.9221,20.792 L11.4831,20.792 C11.7031,20.792 11.9331,20.638 11.9331,20.449 L11.9331,13.618 C11.9331,13.43 11.7031,13.209 11.4831,13.209 L10.9221,13.209 L10.9221,11.692 L16.1641,11.692 L17.8751,17.759 L17.9211,17.759 L19.6491,11.692 L25.0791,11.692 L25.0791,13.209 Z" id="Fill-1710" fill="#24B47E"></path>
                            </g>
                        </g>
                    </g>
                </g>
            </g>
        </g>
    </g>
</svg>