<?xml version="1.0" encoding="UTF-8"?>
<svg width="34px" height="34px" viewBox="0 0 34 34" version="1.1" xmlns="http://www.w3.org/2000/svg" xmlns:xlink="http://www.w3.org/1999/xlink">
    <!-- Generator: Sketch 54.1 (76490) - https://sketchapp.com -->
    <title>reddit@1,5x</title>
    <desc>Created with Sketch.</desc>
    <g id="Dizajn" stroke="none" stroke-width="1" fill="none" fill-rule="evenodd">
        <g id="01-01-00-V2" transform="translate(-1126.000000, -2677.000000)">
            <g id="footer" transform="translate(0.000000, 1817.000000)">
                <g id="Footer">
                    <g id="Right" transform="translate(882.000000, 622.000000)">
                        <g id="Icon" transform="translate(3.000000, 237.000000)">
                            <g id="Group-4" transform="translate(240.427800, 1.000000)">
                                <path d="M34,17 C34,25.837 26.837,33 18,33 C9.164,33 2,25.837 2,17 C2,8.163 9.164,1 18,1 C26.837,1 34,8.163 34,17 Z" id="Stroke-381" stroke="#24B47E"></path>
                                <path d="M25.0468,16.5527 C24.7258,15.8137 24.2088,15.1397 23.5408,14.5677 C23.7548,14.3957 24.0258,14.2927 24.3198,14.2927 C25.0078,14.2927 25.5678,14.8527 25.5678,15.5407 C25.5678,15.9577 25.3608,16.3257 25.0468,16.5527 M22.6128,21.5967 C21.3318,22.5537 19.6128,23.0807 17.7748,23.0807 C15.9358,23.0807 14.2178,22.5537 12.9368,21.5967 C11.7368,20.7007 11.0768,19.5357 11.0768,18.3167 C11.0768,17.0977 11.7368,15.9327 12.9368,15.0367 C14.2178,14.0787 15.9358,13.5527 17.7748,13.5527 C19.6128,13.5527 21.3318,14.0787 22.6128,15.0367 C23.8118,15.9327 24.4718,17.0977 24.4718,18.3167 C24.4718,19.5357 23.8118,20.7007 22.6128,21.5967 M9.9808,15.5407 C9.9808,14.8527 10.5408,14.2927 11.2288,14.2927 C11.5238,14.2927 11.7938,14.3957 12.0078,14.5677 C11.3398,15.1407 10.8228,15.8137 10.5018,16.5527 C10.1868,16.3257 9.9808,15.9577 9.9808,15.5407 M23.0998,9.4847 C23.5878,9.4847 23.9848,9.8807 23.9848,10.3687 C23.9848,10.8577 23.5878,11.2547 23.0998,11.2547 C22.6108,11.2547 22.2138,10.8577 22.2138,10.3687 C22.2138,9.8807 22.6108,9.4847 23.0998,9.4847 M26.5158,15.5407 C26.5158,14.3277 25.5318,13.3457 24.3198,13.3457 C23.7128,13.3457 23.1638,13.5927 22.7668,13.9907 C21.5388,13.1987 19.9708,12.6957 18.2478,12.6157 C18.2488,11.8847 18.5768,11.2027 19.1478,10.7447 C19.7188,10.2867 20.4568,10.1157 21.1728,10.2747 L21.2708,10.2957 C21.2698,10.3207 21.2668,10.3447 21.2668,10.3687 C21.2668,11.3817 22.0878,12.2017 23.0998,12.2017 C24.1108,12.2017 24.9318,11.3817 24.9318,10.3687 C24.9318,9.3577 24.1108,8.5367 23.0998,8.5367 C22.4478,8.5367 21.8788,8.8767 21.5538,9.3887 L21.3778,9.3497 C20.3808,9.1277 19.3518,9.3667 18.5548,10.0067 C17.7588,10.6447 17.3018,11.5957 17.3008,12.6157 C15.5788,12.6957 14.0108,13.1987 12.7828,13.9907 C12.3858,13.5917 11.8358,13.3457 11.2298,13.3457 C10.0168,13.3457 9.0328,14.3277 9.0328,15.5407 C9.0328,16.3857 9.5118,17.1167 10.2108,17.4847 C10.1578,17.7557 10.1298,18.0337 10.1298,18.3167 C10.1298,21.4717 13.5528,24.0287 17.7748,24.0287 C21.9958,24.0287 25.4188,21.4717 25.4188,18.3167 C25.4188,18.0337 25.3908,17.7567 25.3378,17.4847 C26.0368,17.1167 26.5158,16.3857 26.5158,15.5407" id="Fill-382" fill="#24B47E"></path>
                                <path d="M14.9824,15.9834 C15.5344,15.9834 15.9814,16.4304 15.9814,16.9834 C15.9814,17.5354 15.5344,17.9824 14.9824,17.9824 C14.4304,17.9824 13.9824,17.5354 13.9824,16.9834 C13.9824,16.4304 14.4304,15.9834 14.9824,15.9834" id="Fill-383" fill="#24B47E"></path>
                                <path d="M20.5664,15.9834 C21.1184,15.9834 21.5664,16.4304 21.5664,16.9834 C21.5664,17.5354 21.1184,17.9824 20.5664,17.9824 C20.0144,17.9824 19.5664,17.5354 19.5664,16.9834 C19.5664,16.4304 20.0144,15.9834 20.5664,15.9834" id="Fill-384" fill="#24B47E"></path>
                                <path d="M20.1435,19.4121 C19.4385,20.0541 18.5255,20.4071 17.5715,20.4071 C16.4995,20.4071 15.5075,19.9751 14.7765,19.1911 C14.5975,19.0001 14.2985,18.9901 14.1075,19.1681 C13.9155,19.3471 13.9055,19.6461 14.0835,19.8381 C14.9825,20.8021 16.2535,21.3541 17.5715,21.3541 C18.7615,21.3541 19.9015,20.9131 20.7815,20.1121 C20.9745,19.9351 20.9885,19.6361 20.8125,19.4431 C20.6365,19.2501 20.3365,19.2351 20.1435,19.4121" id="Fill-385" fill="#24B47E"></path>
                            </g>
                        </g>
                    </g>
                </g>
            </g>
        </g>
    </g>
</svg>