<?xml version="1.0" encoding="UTF-8"?>
<svg width="34px" height="34px" viewBox="0 0 34 34" version="1.1" xmlns="http://www.w3.org/2000/svg" xmlns:xlink="http://www.w3.org/1999/xlink">
    <!-- Generator: Sketch 54.1 (76490) - https://sketchapp.com -->
    <title>twitter@1,5x</title>
    <desc>Created with Sketch.</desc>
    <g id="Dizajn" stroke="none" stroke-width="1" fill="none" fill-rule="evenodd">
        <g id="01-01-00-V2" transform="translate(-885.000000, -2677.000000)" stroke="#24B47E">
            <g id="footer" transform="translate(0.000000, 1817.000000)">
                <g id="Footer">
                    <g id="Right" transform="translate(882.000000, 622.000000)">
                        <g id="Icon" transform="translate(3.000000, 237.000000)">
                            <g id="twitter" transform="translate(0.000000, 0.159200)">
                                <path d="M33,18 C33,26.837 25.837,34 17,34 C8.163,34 1,26.837 1,18 C1,9.163 8.163,2 17,2 C25.837,2 33,9.163 33,18 Z" id="Stroke-356"></path>
                                <path d="M24.6729,14.2529 C24.1279,14.4939 23.5419,14.6579 22.9279,14.7319 C23.5559,14.3549 24.0359,13.7599 24.2649,13.0509 C23.6769,13.3989 23.0269,13.6509 22.3349,13.7869 C21.7799,13.1959 20.9899,12.8279 20.1159,12.8279 C18.4379,12.8279 17.0779,14.1899 17.0779,15.8659 C17.0779,16.1049 17.1049,16.3369 17.1569,16.5589 C14.6319,16.4319 12.3929,15.2229 10.8949,13.3839 C10.6329,13.8329 10.4839,14.3549 10.4839,14.9109 C10.4839,15.9659 11.0199,16.8969 11.8339,17.4409 C11.3359,17.4249 10.8679,17.2879 10.4579,17.0599 L10.4579,17.0989 C10.4579,18.5699 11.5059,19.7989 12.8949,20.0769 C12.6409,20.1479 12.3719,20.1849 12.0949,20.1849 C11.8999,20.1849 11.7089,20.1659 11.5239,20.1299 C11.9099,21.3379 13.0319,22.2159 14.3619,22.2399 C13.3219,23.0559 12.0119,23.5399 10.5879,23.5399 C10.3429,23.5399 10.1009,23.5269 9.8629,23.4979 C11.2079,24.3599 12.8049,24.8629 14.5209,24.8629 C20.1089,24.8629 23.1659,20.2329 23.1659,16.2179 C23.1659,16.0869 23.1619,15.9559 23.1569,15.8249 C23.7509,15.3979 24.2659,14.8619 24.6729,14.2529 Z" id="Stroke-358"></path>
                            </g>
                        </g>
                    </g>
                </g>
            </g>
        </g>
    </g>
</svg>