<?xml version="1.0" encoding="UTF-8"?>
<svg width="34px" height="34px" viewBox="0 0 34 34" version="1.1" xmlns="http://www.w3.org/2000/svg" xmlns:xlink="http://www.w3.org/1999/xlink">
    <!-- Generator: Sketch 54.1 (76490) - https://sketchapp.com -->
    <title>youtube</title>
    <desc>Created with Sketch.</desc>
    <defs>
        <polygon id="path-1" points="0.521 0.1628 18.3076752 0.1628 18.3076752 12.8888 0.521 12.8888"></polygon>
    </defs>
    <g id="Dizajn" stroke="none" stroke-width="1" fill="none" fill-rule="evenodd">
        <g id="01-01-00-V2" transform="translate(-1174.000000, -2677.000000)">
            <g id="footer" transform="translate(0.000000, 1817.000000)">
                <g id="Footer">
                    <g id="Right" transform="translate(882.000000, 622.000000)">
                        <g id="Icon" transform="translate(3.000000, 237.000000)">
                            <g id="youtube" transform="translate(288.236300, 0.059600)">
                                <g id="Group-1719" transform="translate(8.581100, 11.457600)">
                                    <mask id="mask-2" fill="white">
                                        <use xlink:href="#path-1"></use>
                                    </mask>
                                    <g id="Clip-1718"></g>
                                    <path d="M7.6738,4.1058 L7.6738,8.7938 L12.1768,6.4658 L7.6738,4.1058 Z M9.3668,0.8458 C7.3508,0.8458 5.3208,0.9098 3.3348,1.0338 C2.2878,1.0998 1.5068,1.8868 1.3898,2.9928 C1.1418,5.3268 1.1418,7.7038 1.3898,10.0588 C1.5068,11.1728 2.2868,11.9598 3.3318,12.0178 C5.6398,12.1418 7.8288,12.2058 9.8398,12.2058 C11.8468,12.2058 13.7468,12.1428 15.4888,12.0178 C16.5438,11.9428 17.3268,11.1558 17.4388,10.0598 C17.6868,7.6228 17.6868,5.2458 17.4388,2.9948 C17.3168,1.8848 16.5348,1.0968 15.4928,1.0338 C13.4448,0.9088 11.3838,0.8458 9.3668,0.8458 L9.3668,0.8458 Z M9.8398,12.8888 L9.8398,12.8888 C7.8178,12.8888 5.6148,12.8258 3.2948,12.7008 C1.9248,12.6258 0.8618,11.5688 0.7098,10.1298 C0.4568,7.7278 0.4568,5.3018 0.7098,2.9208 C0.8618,1.4948 1.9228,0.4378 3.2918,0.3518 C7.2938,0.0998 11.4098,0.0998 15.5348,0.3518 C16.9198,0.4358 17.9578,1.4668 18.1178,2.9188 C18.3708,5.2178 18.3708,7.6438 18.1188,10.1288 C17.9728,11.5668 16.9358,12.5988 15.5388,12.6998 C13.7798,12.8258 11.8628,12.8888 9.8398,12.8888 L9.8398,12.8888 Z" id="Fill-1717" fill="#24B47E" mask="url(#mask-2)"></path>
                                </g>
                                <path d="M34,18 C34,26.837 26.837,34 18,34 C9.163,34 2,26.837 2,18 C2,9.163 9.163,2 18,2 C26.837,2 34,9.163 34,18 Z" id="Stroke-1720" stroke="#24B47E"></path>
                            </g>
                        </g>
                    </g>
                </g>
            </g>
        </g>
    </g>
</svg>